<?xml version="1.0" encoding="utf-8" ?><svg xmlns="http://www.w3.org/2000/svg" xmlns:xlink="http://www.w3.org/1999/xlink" width="2048" height="2048" viewBox="0 0 2048 2048"><path fill="#020A3E" d="M0 0L2048 0L2048 276.873L2048 659.402L2048 711.761L2048 868.945L2048 914.345L2048 996.216L2048 1172.08L2048 1273.97L2048 1305.73L2048 1325.72L2048 1351.65L2048 1445.81L2048 1729.04L2048 1880.44L2048 2048L0 2048L0 1879.04L0 1734L0 1438.91L0 1348.26L0 1337.48L0 1310.86L0 1276.1L0 1176.37L0 992.25L0 912.108L0 868.995L0 713.591L0 662.994L0 276.409L0 0Z"/><path fill="#020A3E" d="M1686.88 1047.5C1691.37 1034.6 1695.38 1023.98 1701.96 1011.8C1713.33 990.515 1728.81 971.701 1747.5 956.443C1791.54 920.832 1879.49 892.15 1933.96 875.718C1918.44 900.424 1903.28 927.575 1886.99 951.891C1837.56 1025.67 1803.87 1025.53 1724.93 1041.12C1725.03 1049.08 1737.08 1041.82 1742.75 1045.86C1790.49 1049.03 1811.22 1051.19 1857.22 1065.09C1911.86 1040.45 1901.19 1001.94 1944.43 965.833C1971.48 943.25 2014.53 928.692 2048 914.345L2048 996.216L2048 1172.08L2048 1273.97L2048 1305.73L2048 1325.72L2048 1351.65L2048 1445.81L2048 1729.04L2048 1880.44L2048 2048L0 2048L0 1879.04L0 1734L0 1438.91L0 1348.26L0 1337.48L0 1310.86L0 1276.1L0 1176.37L0 992.25L0 912.108C38.0622 931.059 72.4686 938.576 106.13 965.789C148.878 1000.35 141.039 1043.19 193.048 1064.59C225.512 1055.34 257.086 1048.85 290.83 1046.99C296.135 1046.69 301.981 1046.32 307.227 1045.75C313.444 1042.27 330.259 1048.16 333.132 1042.99L331.861 1042.63C306.929 1035.84 278.073 1033.77 252.386 1026.03C200.896 1010.51 174.878 970.397 148.443 926.993C138.125 910.052 127.448 893.125 117.337 876.073C141.602 881.506 167.778 891.656 191.127 900.325C276.791 932.129 330.263 956.353 363.648 1047.44C475.55 1055.28 586.114 1091.66 688.023 1137.45C714.438 1149.32 739.249 1163.92 764.189 1175.41C775.07 1110.21 813.898 1052.39 867.329 1014.11C925.822 973.045 998.135 956.67 1068.61 968.531C1138.94 979.85 1201.72 1019.1 1242.7 1077.36C1264.6 1108.37 1275.87 1139.07 1284.09 1175.63C1409.65 1108.87 1544.08 1058.68 1686.88 1047.5Z"/><path fill="#01A764" d="M117.337 876.073C141.602 881.506 167.778 891.656 191.127 900.325C276.791 932.129 330.263 956.353 363.648 1047.44C475.55 1055.28 586.114 1091.66 688.023 1137.45C714.438 1149.32 739.249 1163.92 764.189 1175.41C868.418 1232.55 937.855 1287.05 1022.55 1367.15C1017.54 1372.52 1009.29 1380.81 1004.89 1386.27C981.267 1411.68 958.208 1438.92 934.441 1463.9C879.059 1426.43 817.091 1383.57 748.116 1399.8C698.908 1411.38 682.185 1398.39 640.382 1376.85L642.982 1373.13C703.6 1372.22 769.341 1382 828.193 1366.15C843.936 1361.92 862.936 1353.21 878.179 1346.8C893.095 1340.47 908.186 1334.56 923.434 1329.07C890.892 1314.18 851.385 1298.79 817.513 1287.72C770.529 1272.34 722.513 1284.19 685.515 1316.45C665.135 1334.88 639.293 1362.6 609.286 1361.61C604.798 1361.46 571.746 1348.6 565.446 1346.37C543.012 1338.19 520.371 1330.6 497.546 1323.6C511.383 1322.84 527.858 1319.76 541.623 1317.93C586.261 1312.01 631.501 1302.59 666.988 1272.76C699.184 1245.7 718.325 1226.62 757.552 1208.06C753.181 1206.25 748.786 1204.5 744.368 1202.81C675.049 1176.55 586.914 1183.03 535.741 1241.1C508.766 1271.71 502.189 1298.88 461.043 1317.34C359.629 1301.37 267.872 1305.06 165.921 1307.36C110.656 1308.61 55.2614 1308.31 0 1310.86L0 1276.1L0 1176.37L0 992.25L0 912.108C38.0622 931.059 72.4686 938.576 106.13 965.789C148.878 1000.35 141.039 1043.19 193.048 1064.59C225.512 1055.34 257.086 1048.85 290.83 1046.99C296.135 1046.69 301.981 1046.32 307.227 1045.75C313.444 1042.27 330.259 1048.16 333.132 1042.99L331.861 1042.63C306.929 1035.84 278.073 1033.77 252.386 1026.03C200.896 1010.51 174.878 970.397 148.443 926.993C138.125 910.052 127.448 893.125 117.337 876.073Z"/><path fill="#020A3E" d="M0 1276.1C56.0445 1254.52 97.3398 1229.02 122.654 1172.51C133.687 1147.88 143.874 1130.23 164.598 1112.34C206.528 1076.13 288.19 1066.43 342.78 1070.96L346.496 1073.5C285.165 1087.52 213.017 1124.36 180.992 1179.99C158.325 1219.36 148.856 1260.75 124.417 1301.02C195.328 1279.97 268.102 1257.3 305.736 1187.49C313.149 1173.74 318.454 1158.85 326.063 1145.24C340.739 1118.99 367.998 1086.97 397.731 1077.62C420.567 1070.43 531.859 1104.44 559.941 1113.28C498.324 1116.76 412.45 1131.04 371.896 1180.81C342.855 1216.46 322.939 1263.41 294.875 1302.13C341.752 1291.73 406.747 1276.95 446.972 1251.67C503.18 1216.36 518.25 1149.42 585.161 1122.14C615.891 1132.08 647.868 1146.23 677.385 1159.38C794.418 1211.53 916.793 1293.01 1004.89 1386.27C981.267 1411.68 958.208 1438.92 934.441 1463.9C879.059 1426.43 817.091 1383.57 748.116 1399.8C698.908 1411.38 682.185 1398.39 640.382 1376.85L642.982 1373.13C703.6 1372.22 769.341 1382 828.193 1366.15C843.936 1361.92 862.936 1353.21 878.179 1346.8C893.095 1340.47 908.186 1334.56 923.434 1329.07C890.892 1314.18 851.385 1298.79 817.513 1287.72C770.529 1272.34 722.513 1284.19 685.515 1316.45C665.135 1334.88 639.293 1362.6 609.286 1361.61C604.798 1361.46 571.746 1348.6 565.446 1346.37C543.012 1338.19 520.371 1330.6 497.546 1323.6C511.383 1322.84 527.858 1319.76 541.623 1317.93C586.261 1312.01 631.501 1302.59 666.988 1272.76C699.184 1245.7 718.325 1226.62 757.552 1208.06C753.181 1206.25 748.786 1204.5 744.368 1202.81C675.049 1176.55 586.914 1183.03 535.741 1241.1C508.766 1271.71 502.189 1298.88 461.043 1317.34C359.629 1301.37 267.872 1305.06 165.921 1307.36C110.656 1308.61 55.2614 1308.31 0 1310.86L0 1276.1Z"/><path fill="#020A3E" d="M0 992.25C32.6723 1036.89 66.4962 1053.45 121.551 1062.78C140.67 1066.02 148.985 1065.74 166.854 1074.74C118.369 1092.05 31.8917 1135.7 0 1176.37L0 992.25Z"/><path fill="#00123D" d="M333.132 1042.99C335.936 1043.19 337.201 1043.65 339.943 1044.28C339.392 1046.18 339.024 1045.87 337.21 1046.39C329.956 1046.03 312.705 1046.52 307.227 1045.75C313.444 1042.27 330.259 1048.16 333.132 1042.99Z"/><path fill="#005C3A" d="M339.943 1044.28C341.388 1044.59 345.767 1044.81 346.187 1046.47C344.797 1047.61 338.999 1046.84 337.21 1046.39C339.024 1045.87 339.392 1046.18 339.943 1044.28Z"/><path fill="#001C1E" d="M342.78 1070.96C347.068 1070.95 359.593 1071.15 346.496 1073.5L342.78 1070.96Z"/><path fill="#EBE8DB" d="M764.189 1175.41C775.07 1110.21 813.898 1052.39 867.329 1014.11C925.822 973.045 998.135 956.67 1068.61 968.531C1138.94 979.85 1201.72 1019.1 1242.7 1077.36C1264.6 1108.37 1275.87 1139.07 1284.09 1175.63C1188.96 1227.14 1101.84 1292.22 1025.47 1368.83L1042.86 1387.38C1116.76 1471.23 1191.43 1554.38 1266.88 1636.84L940.982 1637.07C887.755 1637.03 831.887 1636.12 778.854 1636.99L930.811 1468.17L934.441 1463.9C958.208 1438.92 981.267 1411.68 1004.89 1386.27C1009.29 1380.81 1017.54 1372.52 1022.55 1367.15C937.855 1287.05 868.418 1232.55 764.189 1175.41Z"/><path fill="#01A764" d="M461.043 1317.34C502.189 1298.88 508.766 1271.71 535.741 1241.1C586.914 1183.03 675.049 1176.55 744.368 1202.81C748.786 1204.5 753.181 1206.25 757.552 1208.06C718.325 1226.62 699.184 1245.7 666.988 1272.76C631.501 1302.59 586.261 1312.01 541.623 1317.93C527.858 1319.76 511.383 1322.84 497.546 1323.6C520.371 1330.6 543.012 1338.19 565.446 1346.37C571.746 1348.6 604.798 1361.46 609.286 1361.61C639.293 1362.6 665.135 1334.88 685.515 1316.45C722.513 1284.19 770.529 1272.34 817.513 1287.72C851.385 1298.79 890.892 1314.18 923.434 1329.07C908.186 1334.56 893.095 1340.47 878.179 1346.8C862.936 1353.21 843.936 1361.92 828.193 1366.15C769.341 1382 703.6 1372.22 642.982 1373.13L640.382 1376.85C682.185 1398.39 698.908 1411.38 748.116 1399.8C817.091 1383.57 879.059 1426.43 934.441 1463.9L930.811 1468.17C925.67 1468.04 906.259 1474.31 900.093 1475.97C876.819 1482.23 858.39 1486.09 834.098 1485.1C796.038 1483.11 758.092 1459.97 725.809 1440.51C678.584 1412.05 634.95 1390.77 583.962 1370.08C582.271 1371.24 581.035 1372.2 579.416 1373.46L578.362 1374.26C605.354 1391.67 634.398 1410.1 660.29 1428.88C726.752 1477.09 741.885 1512.9 754.286 1589.62C683.741 1556.04 601.466 1526.09 575.469 1445.58C566.659 1418.3 559.204 1391.96 538.712 1371.18C530.923 1363.28 515.548 1350.69 505.256 1346.9C474.055 1335.43 421.171 1330.35 388.358 1329.89C377.631 1331.28 348.63 1328.48 341.89 1332.86C413.852 1358.86 496.427 1399.75 529.359 1473.21C543.935 1505.73 557.398 1536.18 574.438 1567.52C526.099 1554.93 473.833 1538.64 432.231 1509.79C378.458 1472.51 379.744 1405.28 332.676 1362.94C324.704 1355.77 296.514 1332.6 286.435 1331.64C266.093 1329.71 239.837 1331.64 218.837 1332.16C194.695 1332.71 170.549 1333.11 146.401 1333.35L122.971 1334.09C128.194 1336.29 137.659 1338.29 143.366 1339.26C189.456 1353.21 216.075 1361.69 258.392 1386.08C330.928 1427.87 348.767 1485.57 380.155 1556.46C361.522 1551.28 339.726 1543.73 321.49 1537.6C268.649 1519.84 217.405 1499.92 191.425 1446.48C176.91 1416.62 168.466 1392.87 142.945 1369.32C127.423 1355 105.279 1341.32 84.408 1336.16C77.779 1334.51 58.9141 1335.68 51.0851 1335.92L0 1337.48L0 1310.86C55.2614 1308.31 110.656 1308.61 165.921 1307.36C267.872 1305.06 359.629 1301.37 461.043 1317.34Z"/><path fill="#00123D" d="M558.568 1361C567.38 1363.92 575.259 1366.83 583.962 1370.08C582.271 1371.24 581.035 1372.2 579.416 1373.46L578.362 1374.26C571.686 1369.96 565.087 1365.53 558.568 1361Z"/><path fill="#00123D" d="M346.785 1329.18C356.301 1328.87 379.545 1328.47 388.358 1329.89C377.631 1331.28 348.63 1328.48 341.89 1332.86C339.023 1332.62 337.06 1331.78 334.325 1330.91C339.721 1329.27 343.048 1330.28 346.785 1329.18Z"/><path fill="#003017" d="M334.325 1330.91C332.406 1330.97 330.901 1330.73 329.457 1329.47C332.439 1328.8 343.306 1328.96 346.785 1329.18C343.048 1330.28 339.721 1329.27 334.325 1330.91Z"/><path fill="#00123D" d="M640.382 1376.85C638.902 1376.06 635.411 1374.35 639.343 1373.71L642.982 1373.13L640.382 1376.85Z"/><path fill="#01A764" d="M1686.88 1047.5C1691.37 1034.6 1695.38 1023.98 1701.96 1011.8C1713.33 990.515 1728.81 971.701 1747.5 956.443C1791.54 920.832 1879.49 892.15 1933.96 875.718C1918.44 900.424 1903.28 927.575 1886.99 951.891C1837.56 1025.67 1803.87 1025.53 1724.93 1041.12C1725.03 1049.08 1737.08 1041.82 1742.75 1045.86C1790.49 1049.03 1811.22 1051.19 1857.22 1065.09C1911.86 1040.45 1901.19 1001.94 1944.43 965.833C1971.48 943.25 2014.53 928.692 2048 914.345L2048 996.216L2048 1172.08L2048 1273.97C1995.22 1253.41 1953.87 1228.41 1930.36 1174.99C1920.88 1153.45 1908.88 1132.72 1891.38 1116.68C1843.93 1073.2 1765.62 1068.18 1703.98 1070.89L1703.73 1073.55C1764.22 1085.83 1833.32 1123.37 1866.96 1175.82C1882.69 1200.33 1893.88 1231.9 1905.05 1258.77C1911.66 1274.68 1918.93 1287.46 1927.63 1302.13C1853.29 1277.83 1780.93 1258.98 1742.3 1182.99C1735.83 1170.25 1730.72 1156.73 1723.82 1144.24C1709.27 1117.93 1684.02 1088.57 1654.73 1078.48C1629.54 1069.8 1519.53 1103.08 1490.83 1112.87C1556.68 1120.66 1644.81 1134.31 1685.93 1190.65C1710.94 1224.93 1728.31 1266.3 1754.62 1302.17C1710.8 1292.58 1644.39 1277.31 1606.41 1253.68C1544.54 1215.19 1536.87 1155.46 1464.31 1121.56C1305.41 1176.9 1161.26 1267.82 1042.86 1387.38L1025.47 1368.83C1101.84 1292.22 1188.96 1227.14 1284.09 1175.63C1409.65 1108.87 1544.08 1058.68 1686.88 1047.5Z"/><path fill="#020A3E" d="M2048 996.216L2048 1172.08C2016.83 1137.93 1962.24 1109.42 1920.43 1089.93C1908.72 1084.46 1896.42 1079.77 1884.73 1074.22C1908.39 1063.07 1917.11 1065.86 1941.71 1061.3C1986.36 1053.01 2021.83 1033.41 2048 996.216Z"/><path fill="#00123D" d="M1708.3 1044.74C1712.22 1043.6 1720.71 1041.89 1724.93 1041.12C1725.03 1049.08 1737.08 1041.82 1742.75 1045.86C1734 1046.82 1718.27 1045.66 1708.29 1046.29L1708.3 1044.74Z"/><path fill="#003017" d="M1703.73 1073.55C1703.13 1073.46 1696.88 1073.04 1696.86 1071.59C1697.96 1070.73 1702.52 1070.92 1703.98 1070.89L1703.73 1073.55Z"/><path fill="#005C3A" d="M1708.29 1046.29C1702.03 1047.52 1701.35 1045.41 1708.3 1044.74L1708.29 1046.29Z"/><path fill="#EBE8DB" d="M0 1734C106.583 1659.93 234.131 1673.09 340.239 1737.77C362 1751.46 381.283 1763.84 405.045 1773.9C440.846 1789.07 472.211 1784.67 508.795 1787.86C578.365 1793.91 674.997 1841.7 685.471 1918.14C651.551 1907.33 580.764 1886.74 546.92 1884.69C529.627 1883.82 512.295 1885.29 495.395 1889.06C463.071 1896.2 448.207 1906.97 411.478 1907.59C359.317 1908.47 337.192 1883.29 283.801 1881.17C222.498 1878.73 190.213 1910.15 129.105 1908.64C80.7617 1907.44 45.7001 1888.9 0 1879.04L0 1734Z"/><path fill="#EBE8DB" d="M1374.2 1917.92C1388.98 1845.16 1477.65 1794.3 1546.75 1788.16C1582.3 1785 1612.81 1787.63 1647.2 1773.03C1670.74 1763.27 1693.48 1749.94 1715.56 1737.14C1822.74 1675.03 1938.94 1660.22 2048 1729.04L2048 1880.44C1988.02 1895.2 1935.26 1921.96 1871.35 1901.75C1838.27 1891.29 1820.75 1881.96 1784.44 1880.4C1763.75 1879.7 1743.1 1882.49 1723.34 1888.66C1698.41 1896.36 1682.14 1904.82 1655.25 1906.67C1621.39 1909 1598.66 1897.89 1567.65 1889.71C1509.34 1874.33 1431.47 1900.2 1374.2 1917.92Z"/><path fill="#01A764" d="M1291.08 1207.55C1292.21 1207.11 1293.34 1206.67 1294.48 1206.25C1367.31 1178.97 1460.9 1181.27 1515.23 1242.86C1544.04 1275.52 1546.8 1298.04 1589.82 1317.62C1618 1312.74 1659.89 1312.9 1688.66 1312.92L1688.8 1332.18C1644.99 1331.93 1588.71 1331.93 1546.12 1346.51C1536.88 1349.67 1522.54 1361.43 1515.56 1368.25C1493.38 1389.94 1484.28 1414.49 1475.01 1443.43C1449.13 1524.24 1368.52 1556.41 1296.34 1588.22C1306.06 1517.68 1323.39 1477.32 1381.21 1432.62C1416.19 1405.57 1457.17 1385.53 1491.54 1360.92C1451.41 1374.89 1407.07 1393.34 1370.04 1414.06C1267.52 1471.42 1233.99 1509.37 1114.66 1464.28C1162.69 1430.6 1225.96 1388.65 1287.15 1397.43C1323.74 1402.68 1351.06 1409.93 1385.08 1389.74C1391.52 1386.15 1402.9 1381 1409.14 1376.58C1403.49 1372.88 1373.63 1376.03 1361.67 1373.83C1321.99 1371.76 1268.7 1379.12 1229.26 1368.59C1196.65 1359.88 1158.62 1341.37 1125.28 1329.09C1145.77 1319.78 1166.52 1311.03 1187.49 1302.85C1258.01 1274.59 1306.49 1267.39 1369.74 1322.45C1396.07 1345.37 1404.61 1356.73 1440.34 1362.88C1470.95 1348.49 1516.87 1333.8 1549.31 1324.39C1509.66 1317.24 1475.45 1316.96 1435.92 1303.03C1388.34 1286.27 1365.74 1254.57 1326.39 1226.96C1314 1218.26 1304.56 1213.75 1291.08 1207.55Z"/><path fill="#00123D" d="M1361.67 1373.83C1375.1 1372.3 1397.74 1372.75 1411.44 1373.96C1411.63 1373.98 1411.85 1374.58 1411.83 1374.79C1411.71 1375.88 1409.99 1376.3 1409.14 1376.58C1403.49 1372.88 1373.63 1376.03 1361.67 1373.83Z"/><path fill="#FB5A20" d="M2048 1305.73L2048 1325.72C2022.82 1333.4 1982.53 1341.57 1956.09 1342.06C1940 1343.51 1919.14 1343.35 1905.2 1345.04C1897.36 1344.79 1881.37 1343.76 1874.56 1344.22C1860.53 1345.71 1846.48 1350.64 1833.04 1354.35C1776.01 1370.09 1726.25 1400.11 1683.77 1440.99C1665.64 1458.44 1652.67 1473.28 1654.24 1499.89C1728.27 1501.46 1717.18 1601.01 1654.68 1597.21C1640.99 1596.3 1628.29 1589.75 1619.6 1579.13C1611.51 1569.28 1607.71 1556.6 1609.04 1543.93C1611.02 1524.63 1623.3 1510.82 1640.15 1502.49L1638.87 1490.22C1603.83 1526.6 1567.93 1562.14 1531.18 1596.79C1543.28 1609.35 1551.18 1621.13 1550.57 1639.79C1549.98 1653.53 1543.95 1666.46 1533.8 1675.74C1523.44 1685.28 1509.66 1690.23 1495.6 1689.49C1448.12 1687.13 1429.1 1628.02 1465.55 1597.99C1481.56 1584.8 1499.4 1583.98 1518.5 1588.91C1537.18 1570.16 1570.62 1538.94 1586.72 1520.19C1608.37 1499.16 1629.2 1477.31 1649.17 1454.68C1676.88 1396.22 1688.31 1364.45 1751.77 1333.82C1741.71 1333.67 1732.77 1333.59 1722.72 1332.64C1717.46 1331.55 1695.38 1332.23 1688.8 1332.18L1688.66 1312.92C1721.23 1313.28 1753.78 1314.7 1786.26 1317.17C1813.03 1319.42 1840.07 1323.49 1866.87 1325.17C1928.02 1329.01 1989.46 1324.35 2048 1305.73Z"/><path fill="#020A3E" d="M1751.77 1333.82C1776.64 1335.34 1803.73 1338.42 1828 1339.42C1735.6 1372.03 1717.6 1386.2 1649.17 1454.68C1676.88 1396.22 1688.31 1364.45 1751.77 1333.82Z"/><path fill="#01A764" d="M1722.72 1332.64C1732.77 1333.59 1741.71 1333.67 1751.77 1333.82C1688.31 1364.45 1676.88 1396.22 1649.17 1454.68C1629.2 1477.31 1608.37 1499.16 1586.72 1520.19C1582.74 1521.61 1578.13 1523.64 1574.19 1525.35C1543.14 1538.8 1511.7 1548.88 1479.35 1558.75C1489.98 1533.1 1502.05 1507.49 1512.3 1481.77C1540.03 1411.7 1606.14 1372.11 1673.61 1347.11C1688.84 1341.47 1707.82 1338.59 1721.36 1333.2L1722.72 1332.64Z"/><path fill="#01A764" d="M1905.2 1345.04C1919.14 1343.35 1940 1343.51 1956.09 1342.06C1924.47 1356.34 1898.77 1373.12 1881.1 1404.02C1873.55 1417.21 1869.04 1430.25 1862.64 1443.76C1850.33 1469.59 1830.79 1491.3 1806.38 1506.23C1780 1522.54 1742.81 1533.75 1712.72 1542.24C1709.15 1527.48 1707.38 1523.22 1697.73 1511.15C1708.81 1488.72 1721.01 1462.33 1735.36 1442.03C1770.79 1391.93 1846.71 1359.07 1905.2 1345.04Z"/><path fill="#01A764" d="M0 1348.26C16.8971 1355.4 31.7812 1365.7 47.2973 1374.13C101.561 1403.59 139.795 1446.81 164.641 1502.92C170.237 1515.56 175.698 1529.29 181.506 1542.01C102.442 1527.89 42.969 1512.3 0 1438.91L0 1348.26Z"/><path fill="#01A764" d="M1870.16 1542.07C1878.12 1521.94 1888.83 1501.07 1898.63 1481.91C1934.65 1411.44 1980.46 1385.58 2048 1351.65L2048 1445.81C2046.26 1448.56 2044.5 1451.3 2042.71 1454.03C2001.08 1517.59 1939.32 1527.65 1870.16 1542.07Z"/><path fill="#FB5A20" d="M581.536 1612.43C620.589 1610.94 655.611 1617.31 690.858 1634.5C699.987 1638.95 712.104 1647.86 721.19 1650.2C765.996 1661.77 814.354 1656.39 848.464 1694.71C862.097 1709.3 864.768 1722.6 863.88 1742.25C837.115 1729.35 799.293 1718.46 770.047 1728.24C732.15 1740.92 707.85 1745 668.76 1734.02C607.038 1713.17 591.325 1739.97 532.501 1742.15C518.441 1742.68 497.598 1738 483.966 1734.05C440.956 1721.6 424.2 1719.17 380.713 1728.52C399.2 1655.05 514.225 1616.44 581.536 1612.43Z"/><path fill="#EBE8DB" d="M1413.61 1620.43C1422.82 1620.21 1432.26 1621.49 1441.3 1623.09C1438.62 1639.38 1439.15 1653.33 1448.03 1668.04C1456.35 1681.82 1469.95 1691.6 1485.66 1695.1C1501.25 1698.7 1517.64 1695.72 1530.97 1686.88C1547.86 1675.7 1553.78 1662.26 1557.49 1643.2C1567.04 1646.82 1578.19 1650.34 1588.18 1652.53C1633.84 1662.55 1659.51 1682.34 1672 1728.02C1643.75 1720.25 1613.91 1718.88 1585.49 1726.8C1555.79 1735.08 1537.68 1744 1505.75 1741.99C1479.29 1739.88 1460.15 1726.31 1433.35 1723.85C1402.51 1721.03 1383.23 1737.96 1353.13 1739.49C1341.17 1740.1 1328.59 1737.2 1317.33 1733.56C1276.39 1720.34 1257.08 1726.18 1217.54 1738.76C1216.78 1718.99 1221.61 1704.04 1234.78 1689.56C1260.96 1660.79 1289.96 1659.1 1324.25 1648.63C1329.73 1646.96 1346.42 1638.24 1352.63 1635.34C1373.98 1625.38 1390.32 1621.59 1413.61 1620.43Z"/><path fill="#EBE8DB" d="M167.608 1552.43C193.876 1550.21 228.317 1557.76 251.918 1568.99C271.789 1578.93 291.557 1589.88 314.252 1591.45C357.462 1594.43 388.275 1610.02 401.958 1652.72C385.257 1649.45 358.399 1643.77 342.08 1645.83C296.113 1651.61 286.706 1667.87 238.752 1654.31C199.425 1640.01 189.759 1639.4 149.579 1653.8C139.101 1657.55 123.527 1659.79 112.279 1659.35C95.3243 1658.69 78.7804 1652.06 62.1771 1648.47C43.0638 1644.34 25.0394 1644.72 5.64602 1644.72C31.8479 1584.9 106.449 1555.96 167.608 1552.43Z"/><path fill="#EBE8DB" d="M1862.68 1552.42C1878.01 1550.12 1906.58 1553.08 1921.64 1555.93C1973.24 1565.66 2024.49 1596.33 2046.83 1645.36C2030.85 1644.38 2019.11 1643.66 2003.15 1646.85C1984.69 1650.54 1961.84 1659.34 1943.26 1658.79C1904.15 1657.66 1898.96 1638.54 1857.05 1644.64C1837.66 1648.95 1823.96 1657.03 1802.71 1658.04C1779.22 1659.16 1767.53 1653.71 1745.31 1648.57C1722.94 1643.39 1695.89 1649.5 1673.84 1654.65C1684.09 1624.28 1703.91 1601.46 1735.39 1593.8C1763.65 1586.91 1778.58 1583.66 1803.53 1567.91C1818.98 1558.16 1844.45 1553.93 1862.68 1552.42Z"/><path fill="#EBE8DB" d="M153.709 1955.44C175.71 1954.42 197.647 1958.54 217.77 1967.5C227.149 1971.71 236.309 1976.66 245.829 1980.43C270.733 1990.29 301.013 1989.56 325.679 1979.37C335.846 1975.18 346.111 1969.52 356.331 1965.07C387.168 1951.65 424.781 1952.75 455.666 1965.46C466.787 1970.04 477.33 1976.09 488.65 1980.53C513.375 1990.23 543.822 1989.82 568.326 1979.65C577.807 1975.72 587.458 1969.88 597.028 1965.74C629.847 1951.55 669.062 1952.07 702.353 1964.38C713.833 1968.63 724.945 1975.34 736.53 1979.9C761.903 1989.89 790.101 1990 815.555 1980.22C825.937 1976.13 836.734 1969.99 847.258 1965.54C876.584 1952.48 929.294 1950.68 958.72 1964.47C998.866 1983.28 1032.9 1997.79 1077.71 1979.84C1088.04 1975.71 1099.03 1968.98 1109.85 1964.63C1136.67 1953.1 1187.84 1950.88 1214.52 1964.15C1253.35 1983.46 1286.16 1997.1 1330.03 1979.92C1339.91 1976.06 1350.52 1969.61 1360.94 1965.28C1408.31 1945.6 1455.05 1956.47 1498.55 1979.67C1519.39 1990.54 1557.95 1989.21 1579.07 1979.75C1589 1975.31 1600.54 1969.1 1610.78 1964.77C1637.97 1953.11 1688.51 1951.21 1715.5 1964.03C1755.28 1982.93 1786.26 1997.94 1830.97 1979.68C1841.33 1975.45 1852.4 1968.72 1863.28 1964.23C1891.63 1952.55 1926.08 1953.2 1954.18 1965.45C1961.95 1968.88 1976.63 1974.68 1979.9 1982.65L1979.07 1984.26C1971.75 1985.47 1954.49 1971.62 1941.96 1968.31C1924.68 1963.75 1920.93 1962.92 1902.5 1963.02C1891.69 1963.87 1878.62 1965.52 1868.73 1969.72C1838.29 1982.65 1823.01 1995.31 1787.95 1994.57C1756.86 1993.91 1744.58 1984.13 1717.01 1972.3C1695.46 1963.06 1670.26 1961.38 1647 1963.14C1601.73 1966.57 1585.46 1996.42 1537.16 1994.53C1499.23 1993.05 1494.08 1983.37 1462.84 1971.2C1445.8 1964.74 1427.66 1961.72 1409.44 1962.29C1353.89 1964.02 1341.21 1995.35 1288 1994.64C1252.79 1994.16 1242.55 1982.9 1213.96 1971.76C1197.08 1965.29 1179.17 1961.98 1161.1 1962.01C1144.24 1962.13 1127.55 1965.37 1111.88 1971.59C1081.95 1983.65 1071.47 1995.29 1034 1994.72C1003.49 1995.42 981.53 1981.61 954.806 1970.54C928.103 1959.48 880.29 1959.09 853.542 1970.62C827.301 1982.53 806.712 1995.41 776.619 1994.59C725.032 1993.18 703.705 1961.94 648.963 1962.46C633.981 1962.49 619.12 1965.14 605.048 1970.28C575.491 1981.32 565.59 1994.33 527.769 1994.69C478.347 1995.16 462.844 1966.39 412.781 1962.83C357.662 1958.91 342.984 1990.13 293.038 1994.32C254.453 1997.57 239.679 1983.13 208.166 1971.25C192.132 1965.27 175.135 1962.28 158.022 1962.45C139.009 1962.29 120.239 1966.72 103.301 1975.36C98.7915 1977.63 86.4142 1985.07 82.4527 1985.46L81.6309 1984.26C83.3881 1975.16 91.8397 1973.25 98.9274 1969.6C116.991 1960.3 133.585 1956.71 153.709 1955.44Z"/><path fill="#EBE8DB" d="M1284.29 1764.42C1310.62 1761.94 1342.64 1770.15 1365.24 1783.41C1374.2 1788.67 1385.74 1792.11 1391.81 1801.03L1390.98 1802.33C1381.68 1802.72 1355.71 1785.58 1342.45 1780.48C1327.64 1774.89 1311.99 1771.86 1296.17 1771.5C1279.77 1771.06 1259.17 1773.49 1244.17 1780.04C1213.49 1793.45 1201.8 1804.17 1166.64 1804.8C1121.75 1805.61 1101.32 1777.73 1058.24 1773.2C1002.64 1767.36 983.082 1804.59 927.589 1804.64C886.466 1804.68 876.195 1794.67 839.64 1779.75C825.964 1774.17 806.638 1772.22 791.902 1771.79C754.17 1771.75 730.501 1783.04 699.095 1801.27C695.476 1803.37 691.69 1805.19 687.728 1803.91L687.15 1801.78C687.461 1800.94 687.742 1800 688.331 1799.55C696.012 1793.69 714.096 1784.93 721.932 1780.79C758.417 1761.49 811.472 1758.93 849.366 1775.68C882.442 1790.31 893.843 1799.69 934.098 1797.13C985.901 1793.84 1002 1760.44 1058.52 1766.24C1106.54 1771.16 1122.67 1800 1171.47 1797.48C1204.07 1795.8 1211.94 1786.33 1240.34 1773.85C1252.92 1768.32 1270.57 1765.48 1284.29 1764.42Z"/><path fill="#EBE8DB" d="M1026.97 1855.39C1088.25 1846.38 1113.6 1886.72 1170.63 1888.06C1221.86 1889.26 1252.1 1848.3 1303.94 1855.6C1316.89 1857.43 1341.71 1862.22 1350.44 1872.84L1349.81 1874.38C1341.53 1875.84 1326.36 1867.44 1316.37 1865.03C1269.37 1853.67 1243.7 1878.36 1201.04 1891.69C1144.27 1909.43 1110.02 1869.81 1058.76 1862.84C993.76 1854.44 976.364 1890.84 918.449 1895.45C862.496 1899.38 826.473 1851.19 768.031 1865.4C760.871 1867.14 737.526 1876.31 733.422 1874.03C733.297 1872.32 732.926 1872.05 734.033 1870.59C738.003 1865.36 749.848 1862.44 756.056 1860.72C831.591 1839.8 853.309 1890.43 918.152 1888.06C949.036 1886.93 962.458 1875.07 989.37 1864.21C1001.63 1859.26 1013.86 1856.72 1026.97 1855.39Z"/><path fill="#EBE8DB" d="M943.6 1686.27C983.455 1682.95 984.687 1698.03 1020.34 1703.26C1045.97 1707.03 1065.89 1686.79 1091.83 1686.6C1114.96 1686.43 1118.76 1694.43 1138.82 1701.67C1144.65 1703.77 1151.19 1702.82 1157.41 1703.16C1160.25 1705.13 1159.16 1703.8 1160.17 1707.7C1156.12 1715.89 1131.85 1706.91 1125.23 1704.1C1081.39 1675.76 1063.23 1713.73 1021.67 1710.66C993.508 1708.59 970.249 1686.63 939.682 1694.01C932.958 1695.63 914.257 1705.09 910.465 1699.71L911.154 1697.51C917.845 1691.75 934.805 1687.58 943.6 1686.27Z"/><path fill="#EBE8DB" d="M0 276.409C44.677 249.059 93.1586 242.307 144.065 254.473C202.555 268.854 253.075 305.594 284.78 356.806C294.291 372.081 301.418 388.716 305.917 406.139C377.139 380.651 451.506 433.83 465.67 504.949C522.423 503.076 572.575 517.915 614.634 557.296C654.491 594.615 670.74 636.851 673.9 690.361C747.328 664.235 824.481 721.703 829.592 797.812C869.415 788.313 897.605 796.843 931.668 818.655C954.892 833.526 983.876 850.287 1005.32 866.983C941.293 869.605 870.491 868.811 806.099 868.975C814.375 879.163 868.933 956.793 870.908 965.866L870.571 967.223C865.118 968.629 862.118 962.662 859.469 958.607C839.803 928.498 817.023 899.313 797.841 868.988L692.94 868.989C720.062 895.618 747.321 922.107 774.715 948.456C787.792 961.017 801.297 974.02 814.571 986.461C816.884 988.629 818.426 992.644 819.265 995.711L818.781 996.934C812.981 996.687 799.158 982.247 794.734 977.91C759.926 943.787 724.278 910.448 689.866 875.935C688.004 874.066 686.046 871.212 684.631 869.023C613.726 868.934 541.654 869.667 470.893 868.887C501.213 929.452 499.808 979.008 488.878 1043.19C478.096 1033.3 466.242 1023.89 455.516 1013.74C411 971.613 389.034 930.399 386.78 868.99L340.388 869.015C339.902 894.657 338.436 911.722 338.899 938.788C317.102 921.413 294.687 903.768 276.06 882.918C271.861 878.218 267.737 873.514 263.408 868.931L191.918 869.001L192.745 889.453C182.859 883.293 168.312 873.972 158.087 868.923C155.983 867.38 155.802 867.072 153.376 866.334C146.979 869.765 128.995 866.867 118.457 868.839C80.0774 869.815 38.6135 869.015 0 868.995L0 713.591L0 662.994L0 276.409Z"/><path fill="#01A764" d="M0 662.994C10.2396 646.868 14.5204 629.498 21.9258 611.99C53.9628 536.248 125.524 511.492 202.271 516.254C191.839 534.687 181.172 552.985 170.271 571.145C151.131 602.709 131.257 635.628 95.208 649.814C67.2487 660.816 41.6236 667.321 14.4375 681.232C50.4517 674.959 79.8811 668.884 116.53 670.165C153.66 671.463 181.814 617.036 204.466 594.926C249.574 548.516 321.373 537.939 379.24 564.476C338.061 610.51 300.624 660.223 233.95 662.685C207.892 663.647 193.586 664.519 167.974 670.149C170.013 671.972 170.333 672.296 172.576 673.686C208.535 676.36 253.212 685.258 286.861 698.114C321.709 684.135 328.083 667.57 354.007 645.891C406.337 602.129 472.22 601.485 532.592 627.374L538.529 629.952C485.677 677.009 447.523 713.548 370.626 707.262C351.096 705.666 330.677 704.806 311.382 708.204C323.33 712.933 334.725 718.953 345.365 726.158C353.255 731.391 361.759 739.055 369.745 743.254C407.823 763.272 431.819 745.396 464.433 726.976C494.373 710.066 541.969 712.667 572.853 725.3C593.98 734.423 624.598 747.901 645.589 758.694C590.307 791.262 542.297 814.286 476.646 797.155C442.938 788.359 430.691 775.542 393.943 771.63C420.67 799.305 451.177 836.222 470.893 868.887C501.213 929.452 499.808 979.008 488.878 1043.19C478.096 1033.3 466.242 1023.89 455.516 1013.74C411 971.613 389.034 930.399 386.78 868.99L340.388 869.015C339.902 894.657 338.436 911.722 338.899 938.788C317.102 921.413 294.687 903.768 276.06 882.918C271.861 878.218 267.737 873.514 263.408 868.931L191.918 869.001L192.745 889.453C182.859 883.293 168.312 873.972 158.087 868.923C155.983 867.38 155.802 867.072 153.376 866.334C146.979 869.765 128.995 866.867 118.457 868.839C80.0774 869.815 38.6135 869.015 0 868.995L0 713.591L0 662.994Z"/><path fill="#EBE8DB" d="M0 713.591C13.5798 709.082 25.2693 705.212 39.6493 703.428C77.9782 722.866 73.6331 741.766 79.5442 778.974C87.1529 826.868 115.711 842.613 153.376 866.334C146.979 869.765 128.995 866.867 118.457 868.839C80.0774 869.815 38.6135 869.015 0 868.995L0 713.591Z"/><path fill="#EBE8DB" d="M77.1629 698.859C114.137 697.931 153.845 696.512 190.203 703.748C194.593 704.622 204.919 711.339 208.182 714.91C252.734 763.666 219.009 812.822 263.408 868.931L191.918 869.001C190.509 838.628 188.725 809.604 174.606 781.899C154.319 742.092 115.631 718.542 77.1629 698.859Z"/><path fill="#EBE8DB" d="M238.849 711.554C271.104 720.933 304.863 733.061 334.159 749.64C379.49 775.295 386.785 821.95 386.78 868.99L340.388 869.015C338.807 789.757 290.614 760.704 238.849 711.554Z"/><path fill="#BBE6C9" d="M172.576 673.686C170.73 673.511 163.89 673.335 162.88 672.736C160.043 671.052 168.613 670.052 167.974 670.149C170.013 671.972 170.333 672.296 172.576 673.686Z"/><path fill="#EBE8DB" d="M1743.15 406.002C1767.49 300.379 1901.76 223.46 2004.56 256.428C2021.48 261.854 2033.05 267.793 2048 276.873L2048 659.402L2048 711.761L2048 868.945C2025.87 869.079 2003.73 869.026 1981.6 868.786C1974.87 866.934 1968.6 867.765 1961.53 867.675C1941.38 867.418 1921.13 867.621 1901 868.037C1899.68 868.064 1898.76 866.521 1898.06 865.602C1895.54 866.754 1894.96 867.288 1892.68 868.93C1889.04 869.727 1863.51 885.673 1857.89 888.857C1857.95 882.427 1858.42 875.474 1858.75 869.01L1786.33 868.948C1764.18 896.271 1739.96 916.687 1712.2 937.619C1712.54 912.329 1712.37 894.073 1710.67 868.915L1662.64 868.881C1662.38 871.759 1662.1 874.635 1661.8 877.509C1653.83 954.326 1614.23 994.376 1557.64 1040.31C1551.25 975.645 1549.34 929.244 1578.07 868.95L1363.04 869.064C1357.98 876.078 1342.82 890.378 1336.07 897.076L1281.94 950.414L1251.26 980.612C1245.33 986.511 1232.75 1002.13 1224.36 1001.22C1224.35 1000.92 1224.3 1000.61 1224.33 1000.31C1224.98 993.985 1339.66 884.009 1353.88 869.02L1247.86 869.085C1232.37 893.142 1212.2 915.848 1196.16 939.708C1191.82 946.177 1184.01 959.926 1175.72 960.152L1174.87 958.825C1175.61 953.371 1232.02 879.394 1239.82 868.961C1200.37 869.007 1160.92 868.786 1121.48 868.298C1095.45 868.106 1068.56 868.361 1042.66 867.084C1064.01 850.436 1093.98 833.304 1117.25 818.415C1150.19 797.34 1179.34 788.142 1218.3 797.657C1218.98 788.478 1220.71 779.407 1223.44 770.617C1233.42 738.858 1255.76 712.448 1285.42 697.328C1315.04 682.122 1343.4 680.103 1374.74 690.291L1374.88 685.379C1378.51 584.901 1461.83 508.504 1560.35 504.77C1568.11 504.475 1575.69 504.748 1583.45 505.05C1590.46 445.3 1655.89 393.724 1715.23 399.377C1725.39 400.346 1733.54 402.751 1743.15 406.002Z"/><path fill="#01A764" d="M1848.33 516.116C1875.4 514.98 1894.02 514.74 1921.23 521.614C1968.83 533.638 2007.45 564.553 2027.9 609.371C2035.21 625.403 2037.86 642.464 2047.29 658.241L2048 659.402L2048 711.761L2048 868.945C2025.87 869.079 2003.73 869.026 1981.6 868.786C1974.87 866.934 1968.6 867.765 1961.53 867.675C1941.38 867.418 1921.13 867.621 1901 868.037C1899.68 868.064 1898.76 866.521 1898.06 865.602C1895.54 866.754 1894.96 867.288 1892.68 868.93C1889.04 869.727 1863.51 885.673 1857.89 888.857C1857.95 882.427 1858.42 875.474 1858.75 869.01L1786.33 868.948C1764.18 896.271 1739.96 916.687 1712.2 937.619C1712.54 912.329 1712.37 894.073 1710.67 868.915L1662.64 868.881C1662.38 871.759 1662.1 874.635 1661.8 877.509C1653.83 954.326 1614.23 994.376 1557.64 1040.31C1551.25 975.645 1549.34 929.244 1578.07 868.95C1596.96 836.071 1630.23 800.119 1656.12 771.445C1624.89 773.711 1610.58 785.773 1581.84 794.502C1507.78 816.998 1464.29 791.892 1401.53 757.675C1421.42 749.648 1442.61 739.2 1462.47 730.394C1496.8 713.986 1549.58 707.747 1584.54 726.886C1617.41 744.886 1642.18 762.885 1680.79 741.853C1688.74 737.523 1696.86 730.287 1704.96 725.328C1715.77 718.714 1726.33 713.265 1738.07 708.151C1719.8 704.89 1697.5 705.808 1678.95 707.321C1602.26 713.575 1563.99 677.477 1510.94 630.381C1580.89 597.057 1657.89 603.05 1712.18 662.539C1727 678.777 1743.15 689.201 1762.79 698.476C1799.94 685.165 1838.67 676.742 1877.99 673.419L1882.12 670.487C1851.69 663.348 1836.27 664.512 1806.37 661.956C1745.83 656.779 1707.87 607.398 1669.9 564.44C1709.45 547.709 1755.5 545.294 1795.58 561.682C1814.07 569.172 1830.81 580.422 1844.73 594.719C1868.33 619.1 1883.91 653.133 1917.61 668.057C1923.75 670.778 1949.64 669.766 1958.03 670.486C1976.82 672.099 2005.67 674.027 2023.49 679.18C2025.4 678.662 2027.31 678.166 2029.23 677.693C2015.07 671.578 2000.68 666.014 1986.09 661.014C1958.6 651.45 1935.81 645.248 1915.99 622.606C1888.68 591.401 1868.75 551.75 1848.33 516.116Z"/><path fill="#EBE8DB" d="M2010.76 703.638C2022.32 704.57 2037.02 708.112 2048 711.761L2048 868.945C2025.87 869.079 2003.73 869.026 1981.6 868.786C1974.87 866.934 1968.6 867.765 1961.53 867.675C1941.38 867.418 1921.13 867.621 1901 868.037C1899.68 868.064 1898.76 866.521 1898.06 865.602C1935.64 843.575 1964.35 823.344 1971.41 777.572C1976.91 741.943 1972.56 721.617 2010.76 703.638Z"/><path fill="#EBE8DB" d="M1786.33 868.948C1810.83 835.877 1813.97 812.491 1816.44 773.24C1817.82 751.287 1827.93 725.179 1845.7 711.634C1849.46 708.773 1858.61 702.771 1862.99 702.276C1887.88 699.463 1933.77 696.09 1957.55 698.849C1960.66 700.66 1962.35 700.955 1965.37 702.626C1887.41 745.953 1860.08 778.491 1858.75 869.01L1786.33 868.948Z"/><path fill="#EBE8DB" d="M1662.64 868.881C1664.79 828.533 1667.73 788.884 1700.54 759.311C1722.49 739.537 1782.89 719.769 1811.2 711.668C1767.21 749.902 1703.69 803.984 1710.67 868.915L1662.64 868.881Z"/><path fill="#E3EADB" d="M1957.55 698.849C1960.74 698.797 1967.04 698.299 1970.04 699.425C1971.03 699.796 1968.66 701.296 1968.38 701.422C1967.23 701.926 1966.65 702.157 1965.37 702.626C1962.35 700.955 1960.66 700.66 1957.55 698.849Z"/><path fill="#BBE6C9" d="M1882.12 670.487C1883.52 670.486 1884.63 670.482 1886 670.738L1886.8 671.92L1887.58 671.383L1887.48 671.757L1887.54 671.743C1886.78 673.651 1879.7 673.358 1877.99 673.419L1882.12 670.487Z"/><path fill="#BBE6C9" d="M2029.23 677.693C2030.2 678.195 2031.56 678.716 2031.94 679.817C2031.61 681.316 2024.61 679.413 2023.49 679.18C2025.4 678.662 2027.31 678.166 2029.23 677.693Z"/><path fill="#E3EADB" d="M1898.06 865.602C1898.76 866.521 1899.68 868.064 1901 868.037C1921.13 867.621 1941.38 867.418 1961.53 867.675C1968.6 867.765 1974.87 866.934 1981.6 868.786C1954.12 869.565 1920.3 869.301 1892.68 868.93C1894.96 867.288 1895.54 866.754 1898.06 865.602Z"/><path fill="#E3EADB" d="M153.376 866.334C155.802 867.072 155.983 867.38 158.087 868.923C145.627 869.108 130.86 869.263 118.457 868.839C128.995 866.867 146.979 869.765 153.376 866.334Z"/><path fill="#FB5A20" d="M1182.03 346.891C1184.41 347.776 1184.46 347.57 1185.9 349.602C1187.48 358.058 1176.04 405.151 1173.53 417.153L1116.39 696.058L1102.31 765.634C1100.58 774.228 1096.55 796.415 1093.53 803.83C1089.32 802.714 1089.84 803.587 1088 800.83C1088.39 792.352 1093.18 771.71 1095.13 762.275L1110.22 689.459L1156.42 463.592C1159.37 449.142 1178.01 351.707 1182.03 346.891Z"/><path fill="#FB5A20" d="M860.295 347.293C864.872 348.375 863.999 347.447 866.575 350.393C878.739 403.21 889.67 461.744 900.21 515.153L932.163 672.206L949.983 761.353C951.546 769.194 957.897 797.083 957.361 803.406C954.458 803.563 954.618 803.623 951.863 802.747C948.092 797.055 933.113 714.222 930.366 700.457L899.782 550.414L873.556 420.811C870.939 407.848 859.004 356.042 860.295 347.293Z"/><path fill="#FB5A20" d="M515.145 872.581C521.597 873.12 555.973 896.043 563.147 900.541L649.815 954.741C677.819 972.111 705.734 989.622 733.561 1007.27C747.806 1016.21 769.727 1029.1 782.559 1038.53C783.76 1042.15 783.338 1041.13 782.251 1045.47C776.653 1043.48 761.2 1033.39 755.341 1029.76L703.855 997.712L535.318 891.697C529.55 888.098 517.951 883.322 514.373 877.156C513.671 875.946 514.687 874.064 515.145 872.581Z"/><path fill="#FB5A20" d="M1532.57 870.72C1533.89 871.899 1535.55 873.464 1534.91 875.473C1534.19 877.699 1531.1 879.947 1529.17 881.133C1515.22 889.734 1501.26 898.297 1487.34 906.956L1403.58 959.466C1361.81 985.644 1313.8 1017.7 1271.76 1042.09C1270.2 1039.74 1270.47 1040.08 1269.39 1037.43C1270.71 1034.01 1271.41 1033.85 1275.19 1031.41C1292.35 1020.31 1309.75 1009.37 1327.05 998.498L1425.75 936.678L1493.51 894.417C1505.21 887.129 1520.85 876.699 1532.57 870.72Z"/><path fill="#EBE8DB" d="M1020.79 554.652C1023.47 555.827 1023.42 555.619 1025.05 558.002C1025.93 566.73 1025.45 586.21 1025.46 595.792L1025.48 666.134L1025.42 757.671C1025.41 767.109 1026.87 804.891 1023.11 810.431C1020.21 809.416 1020.39 809.541 1018.5 807.109C1017.53 796.706 1018.04 780.055 1018.05 769.286L1018.06 705.247L1018.03 612.039C1018.02 595.751 1017.93 579.285 1018.16 562.994C1018.23 557.939 1018.24 558.18 1020.79 554.652Z"/><path fill="#EBE8DB" d="M391.437 250.439C397.038 252.174 422.18 285.458 427.37 291.918L485.656 364.272L525.706 414.037C531.021 420.688 536.683 427.728 541.936 434.487C543.668 436.716 542.678 438.26 542.008 440.969C538.977 440.373 538.076 440.326 536.058 437.881C524.904 424.365 513.709 410.58 502.688 396.984L433.044 310.519L402.146 272.053C398.421 267.407 393.875 261.814 390.279 256.942C388.798 254.936 390.414 252.754 391.437 250.439Z"/><path fill="#EBE8DB" d="M582.325 126.387C585.491 126.48 585.711 126.138 588.177 127.931C594.117 138.585 601.271 155.267 606.522 166.628L639.655 239.036L667.419 299.96C670.579 306.906 683.456 332.515 682.468 338.146L677.968 337.735C675.568 336.173 675.765 336.203 674.715 333.837C667.091 316.655 659.148 299.437 651.361 282.331L606.132 183.068C602.271 174.625 581.322 133.073 582.325 126.387Z"/><path fill="#EBE8DB" d="M1647.94 251.468C1651.33 251.879 1651.75 251.901 1653.22 254.496C1652.41 258.408 1519.77 426.139 1507.05 440.96C1503.73 440.037 1503.52 439.743 1502.54 437.056C1503.92 432.112 1539.87 388.548 1544.79 382.337C1579.44 338.926 1613.83 295.302 1647.94 251.468Z"/><path fill="#FB5A20" d="M800.695 76.3509C803.523 77.3364 803.396 77.1677 805.41 79.3501C815.571 117.6 822.607 160.804 831.872 199.797C838.976 229.692 845.106 261.418 851.629 291.564C852.16 294.017 851.713 295.308 850.764 297.529C847.859 297.25 847.776 297.505 845.493 295.814C842.727 287.619 839.421 269.917 837.424 260.745L823.215 195.4L807.366 122.214C804.618 109.475 801.615 96.319 799.36 83.4805C798.7 79.7252 799.195 79.7625 800.695 76.3509Z"/><path fill="#FB5A20" d="M1241.94 75.3857C1244.78 76.4486 1245.02 76.2068 1246.77 78.5724C1246.97 81.2279 1202.8 288.862 1199.11 298.632C1194.99 297.063 1195.58 298.017 1193.73 294.995C1194.41 278.072 1238.46 81.5197 1241.94 75.3857Z"/><path fill="#EBE8DB" d="M567.478 473.383C570.934 474.233 571.763 474.588 574.127 477.549C588.287 495.279 602.105 513.616 615.933 531.596L682.182 617.264C691.198 629.107 702.042 643.023 711.137 655.101C712.661 657.126 711.506 659.328 710.823 661.531C706.991 660.745 706.53 660.43 704.136 657.416C696.082 647.276 688.169 636.639 680.267 626.394L631.038 562.902C616.348 544.054 601.767 525.121 587.297 506.103C580.909 497.773 574.072 488.992 567.839 480.515C565.875 477.843 566.802 476.02 567.478 473.383Z"/><path fill="#EBE8DB" d="M1475.52 473.422C1478.9 474.299 1477.46 473.489 1479.97 476.02C1480.13 481.798 1464.58 499.174 1460.32 504.719L1416.9 561.225C1393.14 591.96 1361.83 634.809 1337.23 663.354C1334.56 662.426 1335.48 662.871 1333.24 661.038C1333.1 657.984 1333.08 657.55 1335.42 654.527C1350.04 635.638 1364.89 616.686 1379.55 597.843C1411.78 556.558 1443.77 515.083 1475.52 473.422Z"/><path fill="#EBE8DB" d="M1458.22 125.414C1461.8 127.267 1460.48 125.976 1462.51 129.225C1460.79 136.291 1372 332.681 1366.26 339.92C1362.54 337.298 1362.91 338.431 1362.02 334.986C1367.27 321.28 1376.43 302.786 1382.83 288.81L1420.13 206.946L1443.61 155.01C1446.78 148.008 1454.03 130.884 1458.22 125.414Z"/><path fill="#EBE8DB" d="M1020.48 46.3778C1022.69 47.3394 1022.89 47.6693 1024.78 49.2242C1025.54 54.1091 1025.36 69.4602 1025.4 75.041L1025.56 128.755C1025.54 145.634 1026.7 261.393 1023.98 267.846C1021.51 267.464 1021.69 267.355 1019.3 266.391C1018.48 264.086 1017.89 255.849 1018.13 253.55C1020.51 230.759 1013.91 57.0954 1020.48 46.3778Z"/><path fill="#EBE8DB" d="M1020.7 317.821C1022.24 318.605 1024.04 319.014 1024.83 320.646C1026.06 323.158 1027.11 507.782 1023.78 516.149C1020.78 515.09 1020.24 515.241 1018.42 512.647C1017.63 503.907 1018.07 490.518 1018.07 481.477L1018.1 424.953L1018.11 360.455C1018.08 348.615 1017.96 336.568 1018.11 324.723C1018.17 320.471 1018.39 320.599 1020.7 317.821Z"/><path fill="#EBE8DB" d="M700.602 379.374C703.048 380.718 703.964 381.136 705.268 383.798C711.917 397.374 718.192 411.551 724.439 425.297L761.049 506.165C768.522 522.658 777.693 541.94 784.853 558.889C785.732 560.97 783.8 562.964 782.591 564.766C776.603 561.672 767.871 538.591 764.577 531.336L739.548 476.383C730.183 455.974 720.924 435.516 711.771 415.01C707.571 405.628 703.176 395.919 699.156 386.438C697.746 383.111 698.9 382.517 700.602 379.374Z"/><path fill="#EBE8DB" d="M1341.25 380.253C1345.17 381.287 1343.63 380.295 1346.25 382.95C1345.89 390.266 1274.44 546.002 1265.75 564.764C1262.72 563.461 1262.82 563.671 1260.86 561.056C1260.56 555.634 1331.65 400.809 1341.25 380.253Z"/><path fill="#EBE8DB" d="M799.418 604.348C804.114 604.642 804.966 604.941 806.954 609.098C810.87 617.285 814.385 625.661 818.043 633.967L838.772 680.607L866.403 742.62C870.145 751.024 883.147 775.755 881.095 782.88C878.327 782.48 876.029 782.292 874.777 779.567C872.029 773.587 869.451 767.526 866.802 761.501L848.563 720.415C832.444 684.134 816.084 647.56 800.076 611.199C798.854 608.422 798.939 607.233 799.418 604.348Z"/><path fill="#EBE8DB" d="M1241.84 604.531C1244.58 605.145 1243.7 604.904 1246.23 606.383L1246.76 608.644C1244.48 616.302 1237.41 631.116 1233.96 638.884L1209.9 693.231L1184.35 751.04C1180.87 758.9 1173.58 776.577 1169.28 783.012C1165.33 781.469 1166.59 782.765 1164.87 779.527C1165.12 774.075 1234.69 616.497 1241.84 604.531Z"/><path fill="#FB5A20" d="M592.308 1027.48C596.715 1028.48 630.725 1044.38 636.541 1047.02L701.737 1077C713.84 1082.58 729.688 1089.37 741.129 1095.73C743.116 1098.98 742.547 1097.78 741.852 1102.52C737.006 1102.16 595.419 1037.63 591.533 1033.99C590.608 1030.42 590.871 1031.58 592.308 1027.48Z"/><path fill="#FB5A20" d="M1453.81 1027.81C1457.36 1028.84 1457.59 1029.73 1457.75 1032.89C1454.97 1037.14 1414.72 1054.44 1407.2 1057.95C1374.84 1073.12 1342.56 1088.45 1310.36 1103.95L1308.34 1103.34C1306.3 1100.38 1306.7 1101.95 1306.87 1098.54C1309.81 1093.58 1439.21 1034.56 1453.81 1027.81Z"/><path fill="#FB5A20" d="M1531.9 994.258C1543.74 988.548 1545.02 996.906 1538.02 999.67C1534.4 1001.19 1489.35 1021.06 1487.01 1020.01C1480.91 1017.25 1486.21 1013.36 1492.02 1011.06L1528.67 995.55C1531.57 994.343 1529.52 995.116 1531.9 994.258Z"/><path fill="#FB5A20" d="M509.368 991.756C525.199 996.158 542.317 1006.39 558.072 1011.89C565.009 1014.32 565.767 1015.14 563.747 1021.52C550.744 1019.32 528.851 1005.82 515.367 1001.55C508.865 999.492 506.56 997.947 509.368 991.756Z"/><path fill="#FB5A20" d="M894.564 877.376C902.3 879.444 903.544 890.653 906.604 898.615C908.348 903.14 910 907.701 911.56 912.293C913.811 919.527 919.213 928.843 916.669 935.488C907.879 933.315 908.735 927.276 905.666 918.606L903.609 912.625L896.533 892.776C893.95 885.313 891.385 884.101 894.564 877.376Z"/><path fill="#FB5A20" d="M1149.25 877.706C1154.97 881.039 1153.6 882.886 1151.28 888.995C1146.85 900.681 1142.44 912.344 1138.39 924.168L1136.57 929.385C1135.2 933.255 1135.53 932.755 1132.86 935.961C1126.84 932.04 1126.93 930.925 1130.56 923.289C1135.42 913.04 1142.56 884.735 1149.25 877.706Z"/><path fill="#FB5A20" d="M962.585 876.36C970.476 878.118 969.448 882.899 970.351 891.453C971.337 900.79 977.41 922.854 974.687 930.506C974.346 930.446 970.354 929.921 970.211 929.373C967.941 920.642 959.378 883.374 962.585 876.36Z"/><path fill="#FB5A20" d="M1083.06 875.248C1092.27 878.057 1087.82 883.041 1086.09 892.51C1084.59 900.725 1082.62 919.841 1078.86 926.435C1070.81 923.806 1074.03 917.355 1075.86 909.488C1077.76 901.334 1079.18 883.207 1082.4 876.656L1083.06 875.248Z"/><path fill="#EBE8DB" d="M1022.56 874.39C1023.58 874.693 1027.71 875.87 1027.65 877.315C1027.25 887.113 1029.89 912.708 1026.82 920.872C1026.25 920.729 1021.38 919.869 1021.43 918.525C1021.75 908.424 1019.06 882.432 1022.56 874.39Z"/></svg>