<?xml version="1.0" encoding="utf-8" ?><svg xmlns="http://www.w3.org/2000/svg" xmlns:xlink="http://www.w3.org/1999/xlink" width="2048" height="2048" viewBox="0 0 2048 2048"><path fill="#FBF8F3" d="M0 0L2048 0L2048 2048L0 2048L0 0Z"/><path fill="#030865" d="M1573.59 223.353C1590.15 202.939 1603.41 188.593 1625.57 174.093C1695.61 128.266 1783.05 137.216 1847.24 189.476C1919.8 248.551 1951.43 348.518 1960.31 438.387C1975.73 610.468 1937.2 783.081 1850.08 932.279C1840.3 948.961 1830.7 965.343 1819.29 980.966C1815.32 986.401 1813.59 992.298 1808.57 997.405L1807 997.279C1806 995.008 1805.92 994.417 1807.3 991.347C1813.35 977.816 1819.4 962.298 1823.78 948.134C1839.76 900.151 1848.27 850.001 1849.03 799.435C1850.6 699.391 1824.62 536.019 1694.25 529.115C1649.77 526.76 1597.41 565.345 1587.5 608.793C1582.25 631.777 1584.02 666.631 1584.02 691.534L1584.03 800.199C1600.23 805.954 1620.38 814.499 1630.06 829.299C1630.85 859.604 1618.06 891.589 1605.82 919.314C1599.75 934.516 1591.22 951.145 1584.44 966.11C1583.87 967.357 1584.06 985.937 1583.9 989.646C1581.84 983.32 1583.81 967.094 1580.91 966.617C1579.08 967.858 1579.88 971.891 1577.18 969.203C1500.11 1105.23 1372.69 1167.36 1227.44 1212.18C1214.73 1216.09 1201.3 1218.12 1188.69 1222.53C1121.31 1243.49 1061.33 1278.59 1025.26 1341.58L1024.59 1342.77C985.036 1279.9 923.344 1242.35 853.752 1220.92C825.356 1212.18 803.653 1207.58 775.132 1197.15C719.712 1176.65 666.681 1150.19 616.968 1118.24C613.489 1116.27 610.156 1114.06 606.996 1111.61C591.977 1104.55 555.811 1073.97 543.449 1061.81C538.504 1056.95 531.989 1049.2 527.082 1044.96L525.808 1043.88C521.441 1041.7 519.25 1038.77 515.89 1035.19C516.159 1047.59 516.886 1080.83 514.095 1091.59C513.443 1074.43 514.026 1053.89 514.067 1036.48C504.639 1024.86 495.445 1013.12 487.459 1000.45C485.183 996.84 482.802 993.356 479.994 990.136C466.665 1022.07 450.198 1055.99 435.836 1087.8L334.16 1313.15C330.021 1322.44 308.371 1376.51 303.968 1379.27L303.094 1377.64C305.147 1367.67 317.894 1335.37 322.032 1323.75C336.159 1284.41 349.966 1244.95 363.452 1205.39C394.764 1113.57 419.54 1024.41 448.692 932.712C435.771 904.259 420.661 863.416 418.317 832.623L418.942 831.34C429.86 809.421 460.174 801.204 481.984 794.006C462.611 790.497 448.332 786.059 429.885 779.962C359.62 927.257 291.234 1075.44 224.743 1224.48C216.528 1242.84 168.747 1353.77 162.413 1358.46C161.13 1353.05 196.549 1259.06 201.328 1245.77C235.098 1153.52 266.462 1060.4 295.386 966.517L341.739 817.008C348.05 796.546 353.837 775.212 360.564 754.97C361.273 752.111 361.336 751.671 361.507 748.728C357.912 744.49 337.638 731.453 331.551 726.638C263.2 672.576 230.893 596.836 225.065 512.218C223.784 457.876 237.569 404.239 264.894 357.249C308.261 282.669 379.543 228.431 462.986 206.521C542.093 185.894 622.816 200.576 692.603 241.742C754.257 277.679 802.316 332.972 829.314 399.032C838.72 422.223 843.264 439.649 849.543 463.818C853.459 460.505 857.483 457.321 861.609 454.274C862.429 453.239 862.44 453.226 863.451 452.356C954.234 383.442 1061.23 377.41 1159.73 434.216C1164.47 436.949 1175.86 443.726 1179.06 447.427L1183.63 449.792L1184.88 449.293C1190.63 398.394 1192.85 363.866 1210.36 313.999C1245.32 214.435 1328.96 136.746 1440.12 149.311C1497.88 156.183 1534.65 181.935 1573.59 223.353Z"/><path fill="#060559" d="M1573.59 223.353C1590.15 202.939 1603.41 188.593 1625.57 174.093C1695.61 128.266 1783.05 137.216 1847.24 189.476C1919.8 248.551 1951.43 348.518 1960.31 438.387C1975.73 610.468 1937.2 783.081 1850.08 932.279C1840.3 948.961 1830.7 965.343 1819.29 980.966C1815.32 986.401 1813.59 992.298 1808.57 997.405L1807 997.279C1806 995.008 1805.92 994.417 1807.3 991.347C1813.35 977.816 1819.4 962.298 1823.78 948.134C1825.88 951.244 1824.53 950.312 1827.59 951.52C1829.94 949.228 1829.19 949.873 1829.63 945.684C1830.31 941.772 1831.47 937.502 1833.26 933.963C1840.49 905.826 1847.56 875.293 1850.35 845.933C1857.59 756.564 1852.64 651.673 1796.08 577.71C1738.52 503.761 1631.58 506.866 1588.13 593.377C1576.29 616.945 1588.62 661.702 1550.59 657.667C1543.28 656.893 1538.26 651.183 1534.28 645.713C1533 631.966 1530.38 620.318 1524.82 607.568C1512.66 579.133 1489.59 556.773 1460.78 545.507C1431.68 534.269 1399.28 535.175 1370.84 548.021C1332.03 565.335 1307.52 596.331 1292.7 635.24C1288.58 614.359 1283.7 591.517 1275.48 571.944C1271.7 562.952 1259.22 532.24 1253.03 527.83C1247.62 524.839 1252.02 521.502 1248.09 517.47C1227.05 494.019 1218.49 475.647 1189.99 455.596L1188.75 456.262C1186.39 451.976 1182.59 454.164 1179.06 447.427L1183.63 449.792L1184.88 449.293C1190.63 398.394 1192.85 363.866 1210.36 313.999C1245.32 214.435 1328.96 136.746 1440.12 149.311C1497.88 156.183 1534.65 181.935 1573.59 223.353Z"/><path fill="#FDFDFD" d="M1519.36 377.467C1515.03 422.236 1511.99 467.83 1516.27 512.732C1517.06 520.922 1520.05 566.136 1522.94 571.538L1524.79 571.767C1526.89 568.902 1525.91 554.636 1526.06 550.115C1526.4 539.878 1527.21 529.663 1528.51 519.504C1539.45 435.832 1590.61 344.538 1680.48 332.995C1797.65 317.945 1868.49 419.35 1885.76 522.673C1905.31 639.665 1892.57 752.11 1859.51 865.299C1852.62 888.943 1843.37 910.64 1835.45 933.636L1833.26 933.963C1840.49 905.826 1847.56 875.293 1850.35 845.933C1857.59 756.564 1852.64 651.673 1796.08 577.71C1738.52 503.761 1631.58 506.866 1588.13 593.377C1576.29 616.945 1588.62 661.702 1550.59 657.667C1543.28 656.893 1538.26 651.183 1534.28 645.713C1533 631.966 1530.38 620.318 1524.82 607.568C1512.66 579.133 1489.59 556.773 1460.78 545.507C1431.68 534.269 1399.28 535.175 1370.84 548.021C1332.03 565.335 1307.52 596.331 1292.7 635.24C1288.58 614.359 1283.7 591.517 1275.48 571.944C1271.7 562.952 1259.22 532.24 1253.03 527.83C1248.64 513.46 1260.7 476.219 1266.19 461.529C1285.04 411.161 1327.72 366.794 1379.91 351.49C1419.83 339.755 1462.79 344.585 1499.1 364.892C1506.61 369.034 1512.3 373.142 1519.36 377.467Z"/><path fill="#FDFDFD" d="M1189.99 455.596C1188.27 450.067 1190.57 431.142 1191.15 424.585C1200.68 317.502 1248.28 195.801 1360.73 160.966C1409.42 145.896 1462.11 150.908 1507.08 174.887C1533.77 189.083 1550.51 205.761 1571.31 226.678C1537.89 276.787 1529.23 314.857 1519.79 372.698C1435.96 315.793 1339.26 337.278 1282.48 420.366C1266.51 443.74 1248.96 489.256 1248.09 517.47C1227.05 494.019 1218.49 475.647 1189.99 455.596Z"/><path fill="#9CA0BD" d="M1833.26 933.963L1835.45 933.636C1833.62 938.246 1832.35 941.55 1829.63 945.684C1830.31 941.772 1831.47 937.502 1833.26 933.963Z"/><path fill="#FDFDFD" d="M1522.38 530.558C1517.66 498.352 1517.9 464.992 1519.32 432.503C1522.53 359.186 1533.92 284.865 1578.53 224.356C1640.76 139.949 1755.09 124.307 1838.35 187.883C1910.02 242.616 1941.81 333.355 1953.51 419.895C1960.38 473.595 1961.27 527.892 1956.17 581.788C1945.33 714.039 1902.75 841.724 1832.03 954L1830.68 953.84C1895.07 813.337 1923.7 614.698 1874.94 464.643C1858.4 413.746 1820.61 365.486 1771.16 342.638C1678.57 299.857 1586.7 348.54 1546.59 438.321C1537.54 458.825 1530.96 480.333 1526.99 502.392C1525.22 511.805 1524.34 521.191 1522.38 530.558Z"/><path fill="#595D8D" d="M1832.03 954C1831.54 955.389 1828.99 961.124 1827.43 961.122C1826.29 959.772 1829.58 954.968 1830.68 953.84L1832.03 954Z"/><path fill="#FDFDFD" d="M1600.35 921.275C1600.41 919.898 1600.56 919.906 1599.15 919.723L1598.93 919.396L1599.13 918.922C1602.47 917.758 1600.1 921.674 1605.82 919.314C1599.75 934.516 1591.22 951.145 1584.44 966.11C1583.87 967.357 1584.06 985.937 1583.9 989.646C1581.84 983.32 1583.81 967.094 1580.91 966.617C1579.08 967.858 1579.88 971.891 1577.18 969.203C1500.11 1105.23 1372.69 1167.36 1227.44 1212.18C1214.73 1216.09 1201.3 1218.12 1188.69 1222.53C1121.31 1243.49 1061.33 1278.59 1025.26 1341.58L1024.59 1342.77C985.036 1279.9 923.344 1242.35 853.752 1220.92C825.356 1212.18 803.653 1207.58 775.132 1197.15C719.712 1176.65 666.681 1150.19 616.968 1118.24C613.489 1116.27 610.156 1114.06 606.996 1111.61C591.977 1104.55 555.811 1073.97 543.449 1061.81C538.504 1056.95 531.989 1049.2 527.082 1044.96L525.808 1043.88C521.441 1041.7 519.25 1038.77 515.89 1035.19C516.159 1047.59 516.886 1080.83 514.095 1091.59C513.443 1074.43 514.026 1053.89 514.067 1036.48C504.639 1024.86 495.445 1013.12 487.459 1000.45C485.183 996.84 482.802 993.356 479.994 990.136L479.782 989.79L480.439 988.149C479.967 985.462 479.796 984.553 479.739 981.847C477.372 976.331 470.248 964.582 467.081 958.819C460.453 946.703 454.311 934.327 448.669 921.722C457.909 930.325 474.158 941.016 483.153 951.482C507.742 980.087 538.714 1014.29 581.222 1007.13C601.457 1003.71 596.193 966.264 603.538 951.458C613.967 930.433 639.986 931.134 660.06 935.827C722.551 949.37 715.815 1014.34 767.946 1042.12C780.828 1049.13 795.591 1051.9 810.138 1050.04C873.533 1042.58 858.431 979.301 911.293 964.462C958.096 951.324 1002.9 979.865 1021.24 1022.41C1034.3 1052.71 1054.82 1081.44 1091.69 1077.07C1134.85 1071.96 1160.97 1036.23 1189.79 1007.76C1225.56 973.395 1273.37 951.955 1320.27 937.478C1352.94 927.473 1387.37 927.853 1417.51 944.58C1425.43 950.215 1428.85 952.726 1434.74 960.903C1441.17 969.659 1443.56 976.715 1445.31 987.497C1447.8 1002.82 1441.83 1027.4 1462.82 1031.34C1478.57 1034.02 1504.5 1016.25 1516.19 1007.05C1527.44 998.064 1537.86 988.086 1547.33 977.235C1548.67 975.694 1549.98 974.129 1551.27 972.541C1558.42 963.334 1590.86 924.502 1600.35 921.275Z"/><path fill="#060559" d="M479.739 981.847C483.215 985.765 489.209 995.385 492.292 1000.28C502.136 1015.93 514.976 1029.26 525.808 1043.88C521.441 1041.7 519.25 1038.77 515.89 1035.19C516.159 1047.59 516.886 1080.83 514.095 1091.59C513.443 1074.43 514.026 1053.89 514.067 1036.48C504.639 1024.86 495.445 1013.12 487.459 1000.45C485.183 996.84 482.802 993.356 479.994 990.136L479.782 989.79L480.439 988.149C479.967 985.462 479.796 984.553 479.739 981.847Z"/><path fill="#060559" d="M1600.35 921.275C1600.41 919.898 1600.56 919.906 1599.15 919.723L1598.93 919.396L1599.13 918.922C1602.47 917.758 1600.1 921.674 1605.82 919.314C1599.75 934.516 1591.22 951.145 1584.44 966.11C1583.87 967.357 1584.06 985.937 1583.9 989.646C1581.84 983.32 1583.81 967.094 1580.91 966.617C1579.08 967.858 1579.88 971.891 1577.18 969.203C1584.34 953.393 1592.7 939.131 1600.35 921.275Z"/><path fill="#FBF8F3" d="M606.996 1111.61C613.824 1111.59 620.95 1110.77 616.968 1118.24C613.489 1116.27 610.156 1114.06 606.996 1111.61Z"/><path fill="#030865" d="M1291.76 1044.41C1331.98 1046.94 1336.28 1074.87 1314.17 1102.62C1285.11 1139.11 1227.39 1163.44 1181.76 1169.2C1136.61 1168.4 1134.82 1142.81 1162.29 1113.67C1192.98 1081.13 1246.5 1047.05 1291.76 1044.41Z"/><path fill="#030865" d="M1009.85 1216.49C967.05 1230.45 921.506 1206.52 897.7 1170.6C866.941 1123.83 887.992 1082.41 946.922 1096.08C988.819 1105.8 1041.57 1147.2 1029.82 1195.44C1024.3 1207.15 1020.93 1209.9 1009.85 1216.49Z"/><path fill="#030865" d="M667.265 1043.09C700.681 1041.25 730.742 1072.28 741.85 1102.02C747.045 1115.92 742.201 1125.77 727.872 1129.91C696.361 1130.88 667.212 1107.98 654.742 1079.48C647.579 1063.12 649.862 1049.97 667.265 1043.09Z"/><path fill="#060559" d="M1547.33 977.235C1540.14 969.776 1548.64 964.142 1551.27 972.541C1549.98 974.129 1548.67 975.694 1547.33 977.235Z"/><path fill="#060559" d="M863.451 452.356C864.193 452.635 870.654 454.459 870.092 454.174L870.212 454.504C869.601 455.122 868.309 455.162 867.518 455.104C861.26 454.651 862.619 459.843 861.949 460.712C856.659 462.678 861.446 455.636 861.609 454.274C862.429 453.239 862.44 453.226 863.451 452.356Z"/><path fill="#FBF8F3" d="M410.173 230.502C478.417 197.406 556.987 192.667 628.714 217.322C710.536 244.787 778.096 303.632 816.529 380.912C825.714 400.05 833.14 419.984 838.716 440.467C841.123 449.179 843.105 459.601 845.639 467.85C824.57 488.123 814.498 501.874 798.346 526.169C800.655 477.091 767.88 435.128 717.482 432.79C693.406 431.742 669.938 440.524 652.464 457.12C635.548 472.899 625.751 494.862 625.312 517.99C624.801 541.174 633.665 563.583 649.897 580.144C666.024 596.932 688.221 606.537 711.499 606.801C732.399 606.969 750.161 600.205 767.69 589.128C762.79 605.459 757.614 624.849 756.379 641.782C756.943 643.693 759.223 706.361 758.42 709.831C759.498 714.328 760.244 718.496 761.21 722.987L762.213 727.49L763.217 731.987C765.185 740.745 768.236 751.431 771.058 759.949C749.037 761.741 715.701 763.652 693.417 764.222C689.407 764.795 686.215 764.985 682.211 765.24L680.941 766.387C676.312 767.295 676.506 766.427 671.267 764.591C659.036 769.103 604.914 772.057 587.464 774.461C567.143 777.312 546.886 780.608 526.71 784.348C521.724 785.288 497.601 790.473 494.736 790.37C452.713 788.864 402.053 765.674 366.691 746.21C349.978 735.853 334.279 723.942 319.804 710.636C257.478 653.147 232.545 583.43 229.439 500.753C233.265 386.375 294.9 292.876 394.179 238.425C399.443 235.5 404.733 233.071 410.173 230.502Z"/><path fill="#FDFDFD" d="M758.42 709.831C759.498 714.328 760.244 718.496 761.21 722.987L762.213 727.49L763.217 731.987C765.185 740.745 768.236 751.431 771.058 759.949C749.037 761.741 715.701 763.652 693.417 764.222C689.407 764.795 686.215 764.985 682.211 765.24C683.311 763.692 683.124 763.568 684.873 763.141C715.587 746.858 732.568 732.235 758.42 709.831Z"/><path fill="#E0E2EE" d="M682.211 765.24C683.311 763.692 683.124 763.568 684.873 763.141C687.962 763.661 690.333 763.929 693.417 764.222C689.407 764.795 686.215 764.985 682.211 765.24Z"/><path fill="#060559" d="M756.379 641.782C756.943 643.693 759.223 706.361 758.42 709.831C732.568 732.235 715.587 746.858 684.873 763.141C683.124 763.568 683.311 763.692 682.211 765.24L680.941 766.387C676.312 767.295 676.506 766.427 671.267 764.591C705.656 749.047 730.942 730.3 757.966 704.221C754.056 684.697 754.427 661.526 756.379 641.782Z"/><path fill="#030865" d="M527.673 267.307C579.306 262.493 625.037 300.519 629.723 352.165C634.408 403.811 596.268 449.446 544.611 454.003C493.136 458.545 447.695 420.568 443.026 369.104C438.357 317.64 476.22 272.105 527.673 267.307Z"/><path fill="#030865" d="M363.377 435.025C410.763 433.898 450.167 471.247 451.577 518.625C452.988 566.004 415.876 605.631 368.507 607.325C320.734 609.034 280.696 571.538 279.274 523.756C277.851 475.974 315.587 436.161 363.377 435.025Z"/><path fill="#030865" d="M525.614 537.782C572.451 531.821 615.215 565.058 620.998 611.917C626.782 658.776 593.384 701.414 546.503 707.02C499.872 712.597 457.512 679.416 451.759 632.806C446.006 586.197 479.027 543.711 525.614 537.782Z"/><path fill="#FBF8F3" d="M1408.66 542.372C1439.89 538.129 1475.34 552.504 1497.33 574.472C1510.96 588.08 1520.77 605.032 1525.77 623.629C1531.38 644.703 1529.78 677.651 1529.77 700.285L1529.81 784.668C1495.18 775.643 1456.14 770.554 1420.76 765.521C1377.44 759.59 1321.58 754.658 1277.83 752.659C1286.2 730.565 1291.34 707.376 1293.08 683.811C1293.4 679.884 1294.07 673.86 1293.73 670.196C1290.06 630.221 1315.41 592.261 1345.97 568.213C1364.48 553.649 1383.88 545.492 1408.66 542.372Z"/><path fill="#FDFDFD" d="M1255.06 802.275C1325.25 806.843 1532.03 822.05 1586.96 862.733C1518.93 902.653 1193.25 925.719 1102.4 927.118C1090.63 928.867 1068.83 927.608 1056.02 928.043L1060.94 925.765C1064.1 925.939 1066.01 925.52 1069.17 925.297C1139.43 914.419 1202.46 875.978 1244.29 818.487C1248.07 813.342 1251.65 807.682 1255.06 802.275Z"/><path fill="#9CA0BD" d="M1060.94 925.765C1064.1 925.939 1066.01 925.52 1069.17 925.297C1069.88 928.341 1097.34 926.778 1102.4 927.118C1090.63 928.867 1068.83 927.608 1056.02 928.043L1060.94 925.765Z"/><path fill="#030865" d="M1399.6 857.968C1417.28 851.229 1434.35 850.301 1453 851.629C1496.43 854.722 1487.31 872.258 1450 875.196C1435.96 876.302 1411.04 876.959 1398.35 869.861C1392.91 865.864 1392.34 863.117 1398.26 858.934L1399.6 857.968Z"/><path fill="#060559" d="M1398.35 869.861C1392.91 865.864 1392.34 863.117 1398.26 858.934L1399.6 857.968C1395.52 865.416 1398.66 862.964 1398.35 869.861Z"/><path fill="#030865" d="M1301.1 829.413C1310.54 827.933 1320.73 829.496 1330.02 830.767C1342.31 832.451 1349.79 840.576 1335.62 847.367C1327.81 851.11 1320.74 851.753 1312.25 852.457C1277.3 857.485 1244.71 836.155 1301.1 829.413Z"/><path fill="#030865" d="M1306.92 873.214C1321.15 871.863 1346.43 873.349 1359.42 879.198C1373.79 885.666 1362.75 890.946 1353.93 892.729C1336.74 894.889 1311.83 894.608 1296.51 886.033C1284.32 879.21 1302.23 874.128 1306.92 873.214Z"/><path fill="#030865" d="M1231.71 887.368C1242.41 885.93 1283.83 887.168 1254 902.503C1247.79 905.697 1235.34 907.663 1228.24 908.934C1177.69 911.095 1189.79 892.182 1231.71 887.368Z"/><path fill="#FDFDFD" d="M460.937 861.213C467.694 857.726 478.262 849.564 483.496 847.758C558.591 821.848 645.868 817.708 724.608 812.93C747.668 811.53 773.724 810.354 796.088 810.123C837.894 872.263 897.288 908.687 969.476 924.283C973.443 924.202 978.203 925.713 982.266 926.183C984.581 926.09 986.801 926.069 989.113 926.048L989.19 928.112C982.424 927.742 976.377 927.84 969.492 927.19C959.443 926.968 940.624 927.522 931.477 926.143C920.329 927.149 880.703 924.629 868.123 924.149C757.793 919.934 645.537 909.685 537.708 885.623C516.244 880.834 479.385 871.685 460.937 861.213Z"/><path fill="#E0E2EE" d="M969.476 924.283C973.443 924.202 978.203 925.713 982.266 926.183C984.581 926.09 986.801 926.069 989.113 926.048L989.19 928.112C982.424 927.742 976.377 927.84 969.492 927.19C959.443 926.968 940.624 927.522 931.477 926.143C939.964 925.232 964.555 927.405 969.476 924.283Z"/><path fill="#595D8D" d="M982.266 926.183C984.581 926.09 986.801 926.069 989.113 926.048L989.19 928.112C982.424 927.742 976.377 927.84 969.492 927.19C973.654 926.955 978.193 926.917 982.266 926.183Z"/><path fill="#030865" d="M727.003 834.334C736.558 833.403 776.062 832.648 781.032 844.507C784.677 853.204 761.484 857.505 755.863 857.954C744.021 859.697 710.309 859.794 701.861 849.555C693.16 839.009 721.053 835.098 727.003 834.334Z"/><path fill="#030865" d="M621.533 852.404C628.285 851.528 665.898 852.913 666.794 863.5C667.638 873.484 641.374 875.831 633.548 876.591C625.311 877.876 615.807 876.349 607.988 875.255C584.397 871.955 578.915 859.187 606.003 854.033C611.046 853.073 616.325 852.812 621.533 852.404Z"/><path fill="#030865" d="M794.978 880.39C843.431 875.038 861.506 896.501 803.76 901.248C792.483 902.783 783.338 902.449 771.991 901.233C764.588 900.44 749.258 896.121 762.121 888.209C770.841 882.846 784.787 881.379 794.978 880.39Z"/><path fill="#272E7D" d="M1056.02 928.043C1053.16 928.177 1052.51 928.227 1049.75 927.718C1049.14 925.889 1059.81 925.806 1060.94 925.765L1056.02 928.043Z"/><path fill="#272E7D" d="M989.113 926.048C997.66 926.243 997.706 927.894 989.19 928.112L989.113 926.048Z"/><path fill="#030865" d="M1577.18 969.203C1579.88 971.891 1579.08 967.858 1580.91 966.617C1583.81 967.094 1581.84 983.32 1583.9 989.646C1584.63 1009.55 1583.82 1030.04 1584.07 1049.99C1584.72 1101.5 1583.01 1154.43 1584.18 1205.82C1655.82 1174.43 1721.97 1173.94 1794.75 1202.48C1796.43 1203.14 1798.11 1203.81 1799.79 1204.5C1804.28 1196 1812.55 1202.83 1806.77 1207.85C1916.38 1258.88 1988.16 1394.88 1944.27 1512.3C1939.1 1526.12 1931.24 1538.92 1925.6 1552.51C1915.36 1575.46 1916.12 1608.89 1934.02 1628.39C1958.32 1654.86 1977.26 1674.79 1992.05 1709.1C2011.2 1753.96 2014.62 1803.98 2001.76 1851.03C1997.55 1866.57 1992.07 1879.73 1986.09 1894.6C1994.57 1894.54 2006.89 1893.93 2014.67 1896.32L2015.26 1897.61C2011.46 1900.57 1923.3 1899.21 1911.49 1899.18L1657.31 1899.26L384.901 1899.5L189.328 1899.38C170.315 1899.44 57.9013 1901.25 48.0051 1896.61L50.2157 1895.89L50.1472 1897.3L50.5901 1897.36L51.5594 1895.66C64.3674 1893.79 90.0152 1894.79 103.944 1894.98C102.281 1813.8 157.574 1734.94 235.54 1711.91C252.634 1706.86 273.248 1708.82 287.888 1698.92C312.81 1682.06 310.337 1654.62 315.629 1628.74C323.583 1591.17 346.095 1558.28 378.24 1537.27C419.668 1510.15 465.955 1505.66 513.523 1515.45C514.218 1479.46 513.352 1440.11 513.128 1403.87C512.734 1337.15 512.717 1270.43 513.076 1203.71C513.243 1167 512.866 1128.07 514.095 1091.59C516.886 1080.83 516.159 1047.59 515.89 1035.19C519.25 1038.77 521.441 1041.7 525.808 1043.88L527.082 1044.96C531.989 1049.2 538.504 1056.95 543.449 1061.81C555.811 1073.97 591.977 1104.55 606.996 1111.61C610.156 1114.06 613.489 1116.27 616.968 1118.24C666.681 1150.19 719.712 1176.65 775.132 1197.15C803.653 1207.58 825.356 1212.18 853.752 1220.92C923.344 1242.35 985.036 1279.9 1024.59 1342.77L1025.26 1341.58C1061.33 1278.59 1121.31 1243.49 1188.69 1222.53C1201.3 1218.12 1214.73 1216.09 1227.44 1212.18C1372.69 1167.36 1500.11 1105.23 1577.18 969.203Z"/><path fill="#FDFDFD" d="M1799.79 1204.5C1804.28 1196 1812.55 1202.83 1806.77 1207.85C1804.4 1206.84 1802.06 1205.72 1799.79 1204.5Z"/><path fill="#FBF8F3" d="M553.155 1077.01C566.018 1088.29 579.615 1098.69 593.857 1108.16C603.882 1114.9 626.018 1126.93 631.176 1136.82C641.673 1156.95 651.879 1178.22 661.836 1198.64L727.46 1333.18C730.716 1330.53 730.331 1329.48 731.255 1324.88L672.475 1155.26C689.392 1164.54 710.786 1173.49 726.305 1182.93C770.758 1209.96 813.407 1257.9 833.81 1305.62C847.73 1338.18 858.607 1371.71 855.774 1406.99C855.092 1415.48 859.294 1429.12 858.302 1438.13C855.234 1458.36 855.743 1473.98 859.913 1493.97C861.37 1500.95 857.25 1518.45 858.033 1525.85C860.69 1550.99 857.277 1575.76 856.567 1600.22C855.372 1641.4 849.733 1666.71 829.211 1702.89C819.04 1721.12 806.24 1737.76 791.223 1752.27C778.801 1706.97 751.671 1668.39 710.536 1644.81C697.086 1637.2 682.584 1631.62 667.501 1628.25C653.177 1625.17 637.31 1628.69 625.428 1620.44C612.573 1611.52 610.033 1593.28 602.11 1580.53C588.957 1559.36 573.571 1544.67 552.736 1531.65C554.924 1525.12 553.794 1475 553.693 1464.57C555.045 1388.41 553.817 1308.54 553.82 1232.12L553.786 1135.32C553.77 1116.69 554.229 1095.45 553.155 1077.01Z"/><path fill="#060559" d="M731.255 1324.88C737.743 1340.79 742.866 1357.66 750.886 1373.03C753.124 1377.32 749.426 1378.34 748.851 1377.28C741.526 1363.72 733.627 1347.51 727.46 1333.18C730.716 1330.53 730.331 1329.48 731.255 1324.88Z"/><path fill="#FBF8F3" d="M1528.66 1045.78C1530.76 1047.91 1529.94 1094.81 1529.94 1100.67L1529.96 1239.08C1485.95 1275.7 1454.39 1322.35 1441.07 1378.81C1436.51 1398.15 1436.46 1413.03 1433.86 1431.66C1428.95 1469.79 1399.17 1506.59 1358.77 1508.28C1336.1 1509.23 1317.44 1506.04 1294.1 1510.14C1254.77 1517.05 1225.94 1529.89 1194.25 1553.4L1192.69 1552.71C1194.95 1530.4 1193.67 1517.42 1192.12 1495.3C1191.72 1489.61 1195.42 1476.42 1195.72 1469.5C1196.13 1459.74 1193.91 1451.4 1192.98 1441.68C1191.9 1430.34 1195.56 1419.89 1196.29 1408.73C1197.68 1399.25 1193.82 1380.5 1196.26 1372C1201.96 1352.13 1207.32 1322.49 1214.38 1303.99C1229.43 1264.58 1259.53 1221.19 1292.97 1195.02C1302.7 1187.41 1337.86 1179.47 1349.84 1171.83C1413.65 1143.59 1483.37 1099.59 1528.66 1045.78Z"/><path fill="#FDFDFD" d="M1649 1276.41C1730.33 1269.29 1818.73 1323.01 1856.34 1394.11C1879.29 1437.51 1887.47 1497.98 1868.47 1544.41C1852.41 1583.63 1825.06 1627.05 1855.84 1667.73C1862.21 1676.01 1870.75 1683.65 1877.74 1691.76C1886.91 1702.58 1894.88 1714.36 1901.53 1726.88C1927.88 1776.64 1933.52 1840.03 1917.09 1893.76L1861.57 1893.66C1869.49 1832.78 1864.13 1775.21 1823.55 1725.67C1806.23 1704.52 1788.01 1694.83 1785.36 1664.75C1782.69 1634.4 1797.35 1614.36 1808.99 1587.71C1821.36 1558.2 1824.9 1514.62 1817.5 1483.52C1805.14 1431.59 1776.11 1395.13 1731.7 1367.25C1681.04 1337.15 1612.88 1331.66 1560.19 1360C1506.13 1389.58 1474.53 1446.43 1460.33 1504.7C1454.66 1532.73 1420.84 1574.23 1391.88 1580.03C1338.71 1590.66 1283.58 1598.39 1244.79 1641.8C1230.8 1657.47 1224.4 1672.23 1218.17 1693.19C1209.33 1672.98 1204.15 1652.23 1200.62 1630.55C1236.39 1571.85 1303.84 1551.1 1369.19 1547.96C1401.11 1546.43 1423.57 1531.08 1440.91 1504.64C1446.18 1496.61 1451 1487.16 1454.18 1477.94C1479.01 1375.8 1529.17 1284.84 1649 1276.41Z"/><path fill="#FDFDFD" d="M1602.06 1417.47C1646.98 1415.67 1697.31 1443.63 1724.64 1478.1C1758.58 1520.9 1764.49 1577.26 1743.92 1627.28C1735.8 1647.03 1723.11 1664.69 1721.36 1686.59C1718.47 1720.23 1731.71 1729.25 1750.03 1751.81C1783.48 1793.01 1791.04 1843.47 1785.83 1894.73L1725.82 1894.43C1731.47 1853.99 1724.85 1807.67 1698 1775.92C1688.92 1765.18 1677.47 1753.15 1673.94 1739.81C1667.62 1715.91 1675.5 1697.92 1686.97 1677.71C1704.44 1646.96 1711.34 1600.72 1700.61 1566.64C1689.01 1529.79 1665.35 1505.96 1631.79 1488.01C1621 1482.35 1606.43 1478.28 1594.55 1476.38C1534.93 1466.83 1488.31 1502.99 1464.45 1555.43C1449.39 1588.51 1444.11 1624.7 1414.2 1650.41C1398.95 1664.27 1378.3 1661.7 1359.32 1666.27C1310.76 1677.96 1272.07 1702.44 1264 1754.44C1256.67 1747.31 1249.49 1740.01 1242.48 1732.56C1247.82 1672.28 1297.39 1644.02 1351.51 1632.46C1380.33 1626.3 1400.7 1632.68 1424.25 1609.63C1449.33 1585.1 1456.13 1554.72 1469.43 1523.61C1480.3 1498.19 1492.63 1476.69 1511.68 1456.44C1536.53 1430.03 1566.54 1418.77 1602.06 1417.47Z"/><path fill="#FBF8F3" d="M147.565 1894.41C147.874 1890.43 148.265 1886.45 148.738 1882.48C156.726 1819.6 197.164 1765.95 258.143 1746.28C284.014 1737.93 304.299 1745.05 322.965 1721.95C336.627 1705.04 336.77 1688.97 340.567 1668.59C346.904 1634.57 364.455 1604.31 391.975 1583.01C418.663 1562.59 452.313 1553.49 485.656 1557.67C512.472 1561.21 544.916 1575.42 561.621 1597.19L562.238 1597.94C580.108 1615.6 583.886 1640.99 601.651 1656.17C611.841 1664.88 638.201 1660.4 650.57 1665.26C702.886 1680.85 742.005 1728.82 752.674 1781.51C753.112 1783.67 751.852 1784.81 750.241 1786.16C748.417 1786.92 747.48 1787.23 745.838 1788.26C739.569 1789.85 719.257 1800.49 711.919 1803.83C703.572 1756.78 665.802 1712.61 618.54 1702.17C611.151 1700.54 601.026 1700.82 592.975 1699.94C563.884 1696.76 566.712 1662.71 550.338 1644.93C532.087 1623 513.337 1614.05 486.11 1610.13C422.933 1601.05 378.628 1632.66 361.385 1693.23C354.77 1716.47 359.586 1738.98 338.962 1759.01C324.89 1772.68 309.409 1768.84 292.393 1773.69C274.394 1778.83 256.039 1787.2 241.401 1798.91C211.77 1822.63 193.733 1857.18 189.259 1894.57C175.362 1894.8 161.461 1894.74 147.565 1894.41Z"/><path fill="#FDFDFD" d="M562.238 1597.94C559.676 1600.78 555.617 1599.87 554.855 1596.65C556.606 1594.37 559.078 1596.43 561.621 1597.19L562.238 1597.94Z"/><path fill="#FDFDFD" d="M1103.95 1894.33C1107.63 1867.83 1101.33 1858.52 1088.95 1835.85C1085.14 1829.49 1082.36 1816 1078.83 1810.21C1065.72 1788.7 1062.91 1776.13 1063.32 1751.53C1063.41 1745.91 1055.08 1731.97 1052.64 1725.06C1045.9 1705.97 1055.01 1687.17 1054.4 1667.77C1054.15 1652.7 1049.19 1640.3 1048.27 1626.38C1047.38 1612.93 1052.88 1595.81 1052.97 1581.23C1053.05 1567.41 1048.88 1556.85 1048.05 1543.71C1046.57 1533.13 1053.62 1515.12 1052.4 1505.5C1049.82 1485.11 1048.51 1475.4 1053.04 1454.68C1054.62 1447.47 1052.19 1427.93 1052.68 1418.86C1053.98 1395.15 1060.29 1373.27 1070.5 1351.82C1088.02 1314.89 1120.21 1282.83 1155.58 1262.78C1168.62 1255.39 1186.94 1245.76 1200.69 1240.86L1200.34 1242.1C1181.49 1255.32 1149.92 1281.91 1136.92 1300.86C1124.46 1319.02 1109.3 1348.28 1101.13 1369.15C1100.14 1371.68 1100.34 1381.09 1099.5 1384.72C1098.17 1390.37 1095.9 1396.29 1094.88 1401.93C1092.58 1414.67 1099.35 1426.9 1099.89 1439.5C1100.28 1448.52 1095.11 1456.06 1095.99 1465.28C1096.66 1472.24 1101.5 1480.88 1101.34 1487.65C1101.08 1499.16 1094.3 1509.4 1093.81 1521.49C1093.3 1534.3 1098.92 1545.52 1099.92 1557.91C1100.76 1568.38 1095.96 1579.8 1095.78 1590.55C1095.66 1597.77 1099.64 1605.32 1100 1612.15C1100.61 1623.87 1096.69 1636.7 1096.85 1648.33C1096.98 1657.94 1102.5 1666.64 1103.94 1676.48C1105 1683.71 1102.32 1695.07 1103.14 1701.22C1104.36 1710.32 1110.02 1722.51 1112.31 1731.91C1114.62 1741.38 1115.91 1755.77 1119.2 1764.53C1124.63 1778.98 1139.02 1790.48 1147.48 1802.82C1153.24 1811.22 1155.94 1824.64 1162.74 1832.56C1166.23 1836.61 1171.67 1841.72 1175.63 1845.3C1194.73 1862.57 1199.47 1869.61 1204.37 1894.8C1170.93 1895 1137.55 1893.82 1103.95 1894.33Z"/><path fill="#FDFDFD" d="M848.485 1239.93C864.384 1243.82 897.712 1263.02 911.296 1272.69C958.181 1306.05 992.969 1361.3 996.164 1419.5C996.73 1429.82 995.122 1440.92 996.211 1451.32C997.271 1461.45 1000.58 1471.34 1000.78 1481.54C1000.76 1489 997.849 1499.87 998.274 1507.25C998.867 1517.58 1002.72 1531.28 1002.12 1541.6C1001.31 1555.37 997.829 1566.1 997.745 1580.51C997.661 1594.99 1003.51 1612.84 1002.99 1625.5C1002.45 1638.37 995.898 1650.21 995.678 1665.69C995.436 1682.63 1000.07 1695.41 999.585 1711.31C999.231 1722.96 990.349 1737.25 987.471 1748.84C984.651 1760.18 987.972 1770.38 985.533 1781.75C983.268 1792.32 976.994 1799.66 971.661 1808.93C967.796 1815.65 965.721 1826.45 962.629 1832.4C949.519 1857.65 941.18 1863.72 946.223 1894.39L884.49 1894.65L846.667 1894.78C852.061 1858.85 866.371 1857.14 888.617 1832.53C893.161 1827.2 896.894 1812.62 900.767 1807.87C922.356 1781.37 936.026 1767.05 938.705 1731.06C939.036 1726.62 948.422 1711.68 948.711 1704.1C949.099 1693.9 947.28 1683.82 948.212 1673.71C962.793 1645.19 946.811 1620.71 955.782 1590.86C955.375 1580.56 950.969 1571.43 951.346 1561C951.286 1548.3 959.32 1530.16 957.475 1517.75C954.727 1499.26 944.467 1489.77 954.95 1470.44C960.09 1460.96 948.471 1443.04 951.459 1434.61C960.086 1410.27 952.784 1391.83 949.631 1367.51C949.203 1364.2 943.078 1354.93 941.367 1350.52C921.153 1298.5 891.224 1272.7 848.485 1239.93Z"/><path fill="#FDFDFD" d="M799.708 1224.16C836.568 1246.38 864.003 1262.23 886.727 1300.23C889.026 1304.07 894.732 1308.8 896.228 1311.95C901.92 1323.97 905.555 1337.56 909.211 1350.42C910.768 1355.9 915.913 1367.87 916.616 1372.53C918.482 1384.9 919.059 1399.83 920.737 1412.52C921.059 1414.96 918.602 1425.89 919.089 1429.93C920.28 1439.79 924.509 1449.29 924.048 1459.04C923.548 1469.62 918.874 1481.46 919.04 1491.99C919.199 1502.07 922.29 1514.23 922.328 1524.22C922.376 1537.19 920.581 1549.67 921.155 1562.9C921.616 1573.53 923.35 1585.2 923.102 1595.64C922.863 1605.69 917.387 1616.38 917.086 1627C916.69 1640.97 920.422 1653.94 918.541 1667.82C916.422 1683.45 906.195 1695.78 901.158 1710.05C896.134 1724.28 898.628 1737.91 889.643 1751.54C882.214 1762.82 867.867 1768.65 860.739 1778.27C854.749 1786.36 853.506 1799.37 844.276 1807.88C835.804 1815.69 824.916 1818.14 816.632 1823.65C807.472 1829.74 796.355 1842.2 787.512 1849.6C778.794 1856.9 766.054 1863.59 758.901 1872.34C755.466 1876.54 753.536 1888.97 752.807 1894.72L666.179 1894.89C670.33 1882.3 671.59 1879.41 679.462 1868.92C678.983 1868.33 677.989 1867.34 677.767 1866.5C679.886 1863.5 687.889 1852.4 690.297 1859.21C697.135 1854.13 706.72 1849.27 714.082 1844.4C721.545 1839.47 731.049 1832.05 738.773 1828.03C746.509 1824 757.484 1822.3 765.679 1817.46C776.259 1811.2 780.548 1800.91 789.05 1792.65C797.435 1784.51 810.567 1780.46 819.363 1772.8C821.563 1770.85 823.551 1768.67 825.292 1766.31C830.625 1759.03 834.155 1749.18 839.089 1742.33C843.971 1735.56 853.11 1728.25 858.279 1721.18C860.593 1718.02 861.739 1716.3 863.136 1712.65C867.617 1700.95 868.37 1689.29 871.751 1677.21C874.683 1666.73 883.011 1650.19 884.224 1640.18C885.114 1632.84 878.838 1615.9 880.278 1607.06C881.862 1597.34 887.515 1587.9 887.588 1578.46C887.672 1567.58 880.228 1556.97 880.998 1545.48C881.642 1535.87 889.004 1526.98 888.325 1517.52C887.659 1508.22 880.702 1499.8 880.68 1489.71C880.657 1478.84 888.02 1471.25 888.732 1460.78C889.275 1452.81 882.908 1444.82 882.104 1437.09C881.285 1429.22 886.506 1421.81 886.946 1414.01C887.363 1406.64 881.799 1399.89 881.258 1392.81C880.734 1385.95 884.449 1377.87 884.09 1370.63C883.741 1363.62 878.162 1357.8 876.36 1351.69C875.055 1347.26 874.728 1339.36 873.943 1334.38C872.638 1326.11 867.331 1319.74 864.427 1312.83C853.494 1286.8 841.704 1267.34 821.841 1247.21C815.27 1240.55 809.228 1233.35 801.132 1227.52L799.708 1224.16Z"/><path fill="#060559" d="M679.462 1868.92C678.983 1868.33 677.989 1867.34 677.767 1866.5C679.886 1863.5 687.889 1852.4 690.297 1859.21C686.485 1862.53 683.163 1865.44 679.462 1868.92Z"/><path fill="#FDFDFD" d="M1245.34 1227.03L1246.95 1228.83C1225.83 1248.96 1208.24 1269.52 1194.53 1295.4C1192.46 1298.2 1188.49 1311.02 1187.07 1312.55C1174.59 1325.98 1178.3 1335.65 1174.54 1349.27C1168.43 1371.37 1163.45 1365.75 1170.36 1390.37C1168.58 1396.64 1165.55 1403.94 1164.23 1409.47C1162.48 1416.82 1169.72 1428.9 1168.71 1437.17C1167.62 1446.13 1161.6 1452.53 1162.9 1461.6C1164.27 1471.1 1170.49 1477.97 1170.84 1487.82C1171.24 1498.97 1163.15 1507.87 1162.99 1518.33C1162.84 1527.73 1170.92 1536.4 1170.94 1546.01C1170.97 1558.49 1164.35 1567.58 1163.93 1580.1C1163.56 1591.02 1170.46 1599.01 1171.82 1608.15C1173.35 1618.42 1168.02 1631.59 1168.45 1642.86C1168.96 1656.55 1177.04 1665.89 1180.53 1677.51C1184.5 1690.73 1182.18 1703.23 1189.89 1716.65C1195.94 1727.17 1204.64 1731.55 1211.31 1739.98C1217.85 1748.25 1222.3 1759.96 1230.27 1768.34C1238.67 1777.18 1248.52 1780.66 1257.64 1788.04C1266 1794.8 1272.82 1806.33 1281.57 1812.85C1291.33 1820.11 1304.99 1824.29 1315.38 1830.3C1323.21 1834.83 1332.13 1841.77 1339.84 1846.89C1347.05 1851.69 1354.72 1856.04 1361.76 1860.81L1363.67 1863.01C1375.15 1870.89 1381.74 1882.22 1386.6 1894.95C1359.2 1894.53 1330.94 1894.87 1303.47 1894.86C1303.21 1890.33 1302.44 1885.83 1301.19 1881.46C1297.11 1867.55 1279.68 1861.61 1269.42 1852.54C1258.35 1842.76 1248.52 1831.46 1236.28 1823.09C1229.98 1818.79 1221.6 1816.29 1214.92 1812.5C1198.01 1803.67 1197.43 1788.76 1186.91 1775.91C1180.15 1767.65 1167.34 1761.66 1161.13 1751.12C1154.23 1739.4 1155.67 1727.18 1152.13 1714.47C1147.81 1699.02 1137.22 1686.37 1133.81 1670.65C1130.84 1656.93 1135.25 1643.68 1134.57 1629.97C1134.03 1619.18 1128.15 1607.23 1127.27 1596.76C1126.36 1585.98 1130.25 1573.6 1131 1562.5C1131.9 1549.63 1128.94 1536.86 1129.09 1523.99C1129.21 1513.79 1132.78 1503.94 1133.12 1493.76C1133.51 1482.15 1128.84 1471.15 1128.22 1459.64C1127.75 1450.84 1130.47 1442.38 1131.73 1433.77C1133.41 1424.07 1132.29 1420.65 1129.65 1411.45C1136.29 1389.52 1130.88 1372.29 1143.23 1351.02C1145.81 1346.59 1148.44 1320.95 1153.59 1314.52C1162.68 1303.15 1169.83 1293.18 1178.41 1281.61C1196.13 1258.98 1221.67 1242.83 1245.34 1227.03Z"/><path fill="#FDFDFD" d="M1496.75 1555.38C1518.22 1540.56 1540.54 1535.47 1566.38 1540.31C1594.18 1545.46 1618.77 1561.53 1634.64 1584.93C1656.7 1617.49 1659.21 1659.69 1643.68 1695.41C1637.59 1709.41 1629.24 1720.21 1624.92 1735.06C1615.01 1769.13 1630.35 1781.31 1647.4 1806.22C1662.44 1828.19 1664.46 1868.61 1660.64 1894.68C1643.88 1894.69 1626.4 1894.96 1609.7 1894.63C1611.68 1868.12 1612.11 1846.58 1598.87 1821.99C1591.99 1809.34 1579.41 1798 1578.61 1782.82C1577.43 1760.33 1590.27 1741.71 1600.17 1722.36C1627.64 1668.64 1594.71 1594.5 1530.89 1590.08C1511.4 1588.77 1492.2 1595.27 1477.52 1608.14C1438.14 1642.76 1442.16 1691.13 1415.19 1720.36C1383.2 1755.06 1329.03 1712.94 1311.65 1790.53C1302.93 1784.93 1293.73 1779.31 1285.62 1772.91C1304.99 1694.64 1359.86 1718.89 1407.4 1695.27C1441.49 1678.34 1446.77 1596.32 1484.95 1565.7C1488.63 1561.61 1492.46 1558.8 1496.75 1555.38Z"/><path fill="#FBF8F3" d="M452.963 1659.27C487.209 1655.98 518.629 1670.72 535.39 1701.55C542.001 1713.71 541.757 1727.76 555.59 1736.4C565.6 1743.42 578.395 1739.96 589.313 1741.89C631.494 1749.34 657.593 1784.99 667.011 1823.99C653.795 1829.41 640.246 1835.75 627.174 1841.65C618.624 1815.03 595.725 1785.28 567.433 1782.24C534.096 1778.66 533.086 1783.88 518.057 1748.42C501.902 1710.32 452.159 1699.76 421.277 1729.67C392.901 1764 408.807 1781.53 393.438 1816.7C380.615 1846.04 356.66 1837.36 334.66 1845.02C309.794 1853.69 296.995 1871.95 286 1894.71C270.963 1894.75 255.926 1894.65 240.892 1894.39C254.068 1842.05 286.24 1810.31 341.008 1804.65C357.415 1803.42 375.512 1783.01 377.576 1767.03C383.837 1718.55 396.765 1669.77 452.963 1659.27Z"/><path fill="#FDFDFD" d="M1493.55 1645.37C1554.5 1642.43 1580.23 1705.8 1554.47 1754.85C1539.14 1784.04 1524.72 1801.79 1549.54 1832.84C1561.74 1848.1 1557.85 1877.39 1553.54 1894.79L1510.1 1894.89C1519.01 1871.1 1521.44 1855.93 1505.71 1834.12C1495.11 1816.79 1506.66 1797.31 1515.83 1783.42C1532.31 1758.46 1533.26 1734.21 1519.15 1709.2C1495.28 1675.43 1455.27 1687.57 1437.22 1719.01C1423.02 1743.75 1420.34 1769.15 1404.89 1792.39C1395.77 1806.13 1381.43 1801.24 1369.29 1807.17C1366.35 1808.58 1366.52 1816.56 1366.43 1819.47C1356.1 1814.91 1346.33 1810.82 1336.53 1805.17C1349.72 1764.95 1357.66 1776.62 1387.4 1772.55C1424.78 1767.42 1429.59 1698.85 1450.01 1673.92C1462.91 1658.16 1471.29 1649.2 1493.55 1645.37Z"/><path fill="#FBF8F3" d="M413.482 1859.5C416.08 1854.07 418.356 1848.86 419.696 1842.96C425.544 1817.21 421.8 1783.76 452.677 1772.63C460.905 1769.67 469.098 1770.14 476.872 1774.15C498.845 1785.49 496.396 1805.91 510.365 1817.03C531.843 1834.13 559.598 1805.27 585.229 1861.71C572.828 1869.06 559.944 1874.82 547.566 1882.23C531.566 1853.71 519.434 1868.74 495.13 1860.58C481.601 1856.03 474.673 1821.54 454.541 1833.79C443.774 1840.33 443.617 1857.62 441.654 1868.7C439.834 1878.97 437.15 1885.92 432.321 1894.92C402.266 1894.53 372.255 1894.98 342.233 1894.76C370.949 1869.49 384.753 1892.47 409.418 1865.91L413.482 1859.5Z"/><path fill="#FDFDFD" d="M1400.44 1820.16C1413.73 1793.86 1422.61 1748.06 1451.54 1736.35C1468.34 1729.54 1486.5 1741.1 1490.82 1758.74C1498.4 1789.75 1473.14 1806.03 1467.94 1833.44C1465.63 1846.47 1481.88 1853.46 1477.54 1869.02L1475.53 1870.5C1474.01 1870.12 1472.5 1869.72 1471 1869.3L1468.14 1867.68C1460 1862.23 1447.62 1857.62 1438.32 1851.58C1439.87 1834.34 1447.87 1826.29 1455.16 1811.26C1460.73 1800.15 1465.11 1777.47 1449.85 1771.82C1434.93 1766.3 1420.23 1787.03 1416.18 1798.81L1416 1801.51C1415.53 1807.56 1409.4 1811.23 1418.41 1808.98C1437.74 1808.62 1423.89 1834.56 1419.87 1843.88C1414.79 1841.08 1410.18 1838.49 1405.18 1835.54C1403.29 1835.44 1403.22 1834.6 1402.26 1833.01C1403.08 1830.93 1403.88 1828.94 1404.64 1826.83C1403.36 1824.54 1401.84 1822.44 1400.44 1820.16Z"/><path fill="#FBF8F3" d="M1418.41 1808.98C1437.74 1808.62 1423.89 1834.56 1419.87 1843.88C1414.79 1841.08 1410.18 1838.49 1405.18 1835.54C1410.1 1824.97 1410.7 1818.34 1418.41 1808.98Z"/><path fill="#060559" d="M1404.64 1826.83C1408.81 1817.16 1410.81 1808.43 1416.18 1798.81L1416 1801.51C1415.53 1807.56 1409.4 1811.23 1418.41 1808.98C1410.7 1818.34 1410.1 1824.97 1405.18 1835.54C1403.29 1835.44 1403.22 1834.6 1402.26 1833.01C1403.08 1830.93 1403.88 1828.94 1404.64 1826.83Z"/><path fill="#FBF8F3" d="M1402.26 1833.01C1400.13 1835.15 1394.28 1830.31 1394.6 1829.6C1395.75 1827.09 1398.82 1822.65 1400.44 1820.16C1401.84 1822.44 1403.36 1824.54 1404.64 1826.83C1403.88 1828.94 1403.08 1830.93 1402.26 1833.01Z"/><path fill="#060559" d="M750.241 1786.16C758.641 1789.8 749.117 1793.93 745.838 1788.26C747.48 1787.23 748.417 1786.92 750.241 1786.16Z"/><path fill="#060559" d="M1200.69 1240.86C1211.85 1245.12 1199 1246.97 1198.63 1246.88L1198.49 1246.7C1198.96 1245.27 1199.78 1243.61 1200.34 1242.1L1200.69 1240.86Z"/><path fill="#060559" d="M1361.76 1860.81C1363.6 1855.39 1374.84 1857.15 1363.67 1863.01L1361.76 1860.81Z"/><path fill="#9CA0BD" d="M1245.34 1227.03C1249.34 1223.98 1252.08 1222.71 1256.38 1220.47C1253.22 1223.39 1250.37 1226.18 1246.95 1228.83L1245.34 1227.03Z"/><path fill="#060559" d="M983.877 1296.86C987.71 1298.6 987.938 1299.23 989.377 1303.01C986.024 1302.74 984.554 1302.36 984.111 1298.49L983.877 1296.86Z"/><path fill="#060559" d="M1468.14 1867.68L1471 1869.3C1468.06 1874.89 1461.62 1869.61 1468.14 1867.68Z"/><path fill="#595D8D" d="M801.132 1227.52C800.511 1227.05 795.397 1223.59 797.837 1222.65C798.886 1223 798.888 1223.21 799.708 1224.16L801.132 1227.52Z"/></svg>